<mxfile host="Electron" modified="2023-11-12T09:52:14.820Z" agent="Mozilla/5.0 (Macintosh; Intel Mac OS X 10_15_7) AppleWebKit/537.36 (KHTML, like Gecko) draw.io/22.0.2 Chrome/114.0.5735.289 Electron/25.8.4 Safari/537.36" etag="O4c6GGHZ0DsPHcB7CAcz" version="22.0.2" type="device" pages="3">
  <diagram id="DNIrS-pvp5CTmOZ2b0xJ" name="System_overview">
    <mxGraphModel dx="2074" dy="1129" grid="1" gridSize="10" guides="1" tooltips="1" connect="1" arrows="1" fold="1" page="1" pageScale="1" pageWidth="850" pageHeight="1100" math="0" shadow="0">
      <root>
        <mxCell id="0" />
        <mxCell id="1" parent="0" />
        <mxCell id="Va2-3wq0Z1bts3xlkRKC-1" value="" style="rounded=0;whiteSpace=wrap;html=1;" parent="1" vertex="1">
          <mxGeometry x="130" y="90" width="1110" height="590" as="geometry" />
        </mxCell>
        <mxCell id="Va2-3wq0Z1bts3xlkRKC-2" value="" style="rounded=0;whiteSpace=wrap;html=1;" parent="1" vertex="1">
          <mxGeometry x="140" y="140" width="400" height="430" as="geometry" />
        </mxCell>
        <mxCell id="Va2-3wq0Z1bts3xlkRKC-3" value="NAD SoC" style="text;html=1;strokeColor=none;fillColor=none;align=center;verticalAlign=middle;whiteSpace=wrap;rounded=0;" parent="1" vertex="1">
          <mxGeometry x="150" y="150" width="70" height="20" as="geometry" />
        </mxCell>
        <mxCell id="Va2-3wq0Z1bts3xlkRKC-4" value="" style="rounded=0;whiteSpace=wrap;html=1;" parent="1" vertex="1">
          <mxGeometry x="570" y="140" width="150" height="430" as="geometry" />
        </mxCell>
        <mxCell id="Va2-3wq0Z1bts3xlkRKC-5" value="WUC (Wakeup Unit Controller)" style="text;html=1;strokeColor=none;fillColor=none;align=center;verticalAlign=middle;whiteSpace=wrap;rounded=0;" parent="1" vertex="1">
          <mxGeometry x="580" y="150" width="140" height="20" as="geometry" />
        </mxCell>
        <mxCell id="Va2-3wq0Z1bts3xlkRKC-6" value="" style="rounded=0;whiteSpace=wrap;html=1;" parent="1" vertex="1">
          <mxGeometry x="740" y="140" width="480" height="470" as="geometry" />
        </mxCell>
        <mxCell id="Va2-3wq0Z1bts3xlkRKC-7" value="BAM SoC" style="text;html=1;strokeColor=none;fillColor=none;align=center;verticalAlign=middle;whiteSpace=wrap;rounded=0;" parent="1" vertex="1">
          <mxGeometry x="750" y="140" width="80" height="20" as="geometry" />
        </mxCell>
        <mxCell id="Va2-3wq0Z1bts3xlkRKC-8" value="" style="rounded=0;whiteSpace=wrap;html=1;fillColor=#fff2cc;strokeColor=#d6b656;" parent="1" vertex="1">
          <mxGeometry x="160" y="190" width="50" height="320" as="geometry" />
        </mxCell>
        <mxCell id="Va2-3wq0Z1bts3xlkRKC-9" value="Modem&lt;br&gt;stack" style="text;html=1;strokeColor=none;fillColor=none;align=center;verticalAlign=middle;whiteSpace=wrap;rounded=0;" parent="1" vertex="1">
          <mxGeometry x="165" y="305" width="40" height="20" as="geometry" />
        </mxCell>
        <mxCell id="Va2-3wq0Z1bts3xlkRKC-10" value="" style="rounded=0;whiteSpace=wrap;html=1;" parent="1" vertex="1">
          <mxGeometry x="240" y="190" width="290" height="320" as="geometry" />
        </mxCell>
        <mxCell id="Va2-3wq0Z1bts3xlkRKC-11" value="AP" style="text;html=1;strokeColor=none;fillColor=none;align=center;verticalAlign=middle;whiteSpace=wrap;rounded=0;" parent="1" vertex="1">
          <mxGeometry x="240" y="190" width="40" height="20" as="geometry" />
        </mxCell>
        <mxCell id="Va2-3wq0Z1bts3xlkRKC-12" value="" style="rounded=0;whiteSpace=wrap;html=1;" parent="1" vertex="1">
          <mxGeometry x="250" y="222.5" width="250" height="45" as="geometry" />
        </mxCell>
        <mxCell id="Va2-3wq0Z1bts3xlkRKC-13" value="" style="rounded=0;whiteSpace=wrap;html=1;" parent="1" vertex="1">
          <mxGeometry x="250" y="290" width="270" height="180" as="geometry" />
        </mxCell>
        <mxCell id="Va2-3wq0Z1bts3xlkRKC-14" value="Linux" style="rounded=0;whiteSpace=wrap;html=1;" parent="1" vertex="1">
          <mxGeometry x="250" y="480" width="270" height="20" as="geometry" />
        </mxCell>
        <mxCell id="Va2-3wq0Z1bts3xlkRKC-17" value="ECU Lifecycle" style="rounded=0;whiteSpace=wrap;html=1;fillColor=#d5e8d4;strokeColor=#82b366;" parent="1" vertex="1">
          <mxGeometry x="575" y="270" width="130" height="110" as="geometry" />
        </mxCell>
        <mxCell id="Va2-3wq0Z1bts3xlkRKC-18" value="AUTOSAR" style="rounded=0;whiteSpace=wrap;html=1;fillColor=#fff2cc;strokeColor=#d6b656;" parent="1" vertex="1">
          <mxGeometry x="575" y="390" width="130" height="120" as="geometry" />
        </mxCell>
        <mxCell id="Va2-3wq0Z1bts3xlkRKC-19" value="" style="rounded=0;whiteSpace=wrap;html=1;" parent="1" vertex="1">
          <mxGeometry x="760" y="170" width="450" height="330" as="geometry" />
        </mxCell>
        <mxCell id="Va2-3wq0Z1bts3xlkRKC-20" value="AP" style="text;html=1;strokeColor=none;fillColor=none;align=center;verticalAlign=middle;whiteSpace=wrap;rounded=0;" parent="1" vertex="1">
          <mxGeometry x="760" y="170" width="40" height="20" as="geometry" />
        </mxCell>
        <mxCell id="Va2-3wq0Z1bts3xlkRKC-21" value="" style="rounded=0;whiteSpace=wrap;html=1;" parent="1" vertex="1">
          <mxGeometry x="765" y="205" width="235" height="80" as="geometry" />
        </mxCell>
        <mxCell id="Va2-3wq0Z1bts3xlkRKC-22" value="" style="rounded=0;whiteSpace=wrap;html=1;" parent="1" vertex="1">
          <mxGeometry x="770" y="300" width="430" height="150" as="geometry" />
        </mxCell>
        <mxCell id="Va2-3wq0Z1bts3xlkRKC-23" value="Linux" style="rounded=0;whiteSpace=wrap;html=1;" parent="1" vertex="1">
          <mxGeometry x="770" y="460" width="430" height="30" as="geometry" />
        </mxCell>
        <mxCell id="Va2-3wq0Z1bts3xlkRKC-24" value="" style="rounded=0;whiteSpace=wrap;html=1;fillColor=#B3B3B3;" parent="1" vertex="1">
          <mxGeometry x="760" y="510" width="450" height="90" as="geometry" />
        </mxCell>
        <mxCell id="Va2-3wq0Z1bts3xlkRKC-29" value="ICON" style="text;html=1;strokeColor=none;fillColor=none;align=center;verticalAlign=middle;whiteSpace=wrap;rounded=0;" parent="1" vertex="1">
          <mxGeometry x="140" y="90" width="40" height="20" as="geometry" />
        </mxCell>
        <mxCell id="KswgFS93ddeIOgf5HxsL-1" value="LPA app" style="rounded=0;whiteSpace=wrap;html=1;fillColor=#d5e8d4;strokeColor=#82b366;" parent="1" vertex="1">
          <mxGeometry x="340" y="232.5" width="50" height="30" as="geometry" />
        </mxCell>
        <mxCell id="KswgFS93ddeIOgf5HxsL-2" value="ecall app" style="rounded=0;whiteSpace=wrap;html=1;fillColor=#d5e8d4;strokeColor=#82b366;" parent="1" vertex="1">
          <mxGeometry x="415" y="232.5" width="60" height="30" as="geometry" />
        </mxCell>
        <mxCell id="KswgFS93ddeIOgf5HxsL-3" value="Tiger framework" style="text;html=1;strokeColor=none;fillColor=none;align=center;verticalAlign=middle;whiteSpace=wrap;rounded=0;" parent="1" vertex="1">
          <mxGeometry x="240" y="290" width="110" height="20" as="geometry" />
        </mxCell>
        <mxCell id="KswgFS93ddeIOgf5HxsL-5" value="Diagnostic manager" style="rounded=0;whiteSpace=wrap;html=1;fillColor=#d5e8d4;strokeColor=#82b366;" parent="1" vertex="1">
          <mxGeometry x="255" y="325" width="70" height="30" as="geometry" />
        </mxCell>
        <mxCell id="KswgFS93ddeIOgf5HxsL-6" value="ecall manager" style="rounded=0;whiteSpace=wrap;html=1;fillColor=#d5e8d4;strokeColor=#82b366;" parent="1" vertex="1">
          <mxGeometry x="345" y="325" width="70" height="30" as="geometry" />
        </mxCell>
        <mxCell id="KswgFS93ddeIOgf5HxsL-7" value="configuration&lt;br&gt;manager" style="rounded=0;whiteSpace=wrap;html=1;fillColor=#d5e8d4;strokeColor=#82b366;" parent="1" vertex="1">
          <mxGeometry x="255" y="365" width="70" height="30" as="geometry" />
        </mxCell>
        <mxCell id="KswgFS93ddeIOgf5HxsL-8" value="Telephony&lt;br&gt;manager" style="rounded=0;whiteSpace=wrap;html=1;fillColor=#d5e8d4;strokeColor=#82b366;" parent="1" vertex="1">
          <mxGeometry x="345" y="365" width="70" height="30" as="geometry" />
        </mxCell>
        <mxCell id="ai0uu60qTlfoPeeWs3AL-1" value="NAD Relay" style="rounded=0;whiteSpace=wrap;html=1;fillColor=#d5e8d4;strokeColor=#82b366;" parent="1" vertex="1">
          <mxGeometry x="435" y="412.5" width="70" height="37.5" as="geometry" />
        </mxCell>
        <mxCell id="ai0uu60qTlfoPeeWs3AL-2" value="Car sharing app" style="rounded=0;whiteSpace=wrap;html=1;fillColor=#dae8fc;strokeColor=#6c8ebf;" parent="1" vertex="1">
          <mxGeometry x="830" y="210" width="80" height="30" as="geometry" />
        </mxCell>
        <mxCell id="ai0uu60qTlfoPeeWs3AL-3" value="Remote Service app" style="rounded=0;whiteSpace=wrap;html=1;fillColor=#dae8fc;strokeColor=#6c8ebf;" parent="1" vertex="1">
          <mxGeometry x="920" y="210" width="70" height="30" as="geometry" />
        </mxCell>
        <mxCell id="ai0uu60qTlfoPeeWs3AL-4" value="Charging status app" style="rounded=0;whiteSpace=wrap;html=1;fillColor=#dae8fc;strokeColor=#6c8ebf;" parent="1" vertex="1">
          <mxGeometry x="830" y="245" width="80" height="30" as="geometry" />
        </mxCell>
        <mxCell id="ai0uu60qTlfoPeeWs3AL-5" value="Service Container" style="text;html=1;strokeColor=none;fillColor=none;align=center;verticalAlign=middle;whiteSpace=wrap;rounded=0;" parent="1" vertex="1">
          <mxGeometry x="770" y="210" width="40" height="20" as="geometry" />
        </mxCell>
        <mxCell id="ai0uu60qTlfoPeeWs3AL-6" value="" style="rounded=0;whiteSpace=wrap;html=1;" parent="1" vertex="1">
          <mxGeometry x="1020" y="205" width="150" height="85" as="geometry" />
        </mxCell>
        <mxCell id="ai0uu60qTlfoPeeWs3AL-7" value="Telematics container" style="text;html=1;strokeColor=none;fillColor=none;align=center;verticalAlign=middle;whiteSpace=wrap;rounded=0;" parent="1" vertex="1">
          <mxGeometry x="1020" y="205" width="120" height="20" as="geometry" />
        </mxCell>
        <mxCell id="ai0uu60qTlfoPeeWs3AL-8" value="Node0 framework" style="text;html=1;strokeColor=none;fillColor=none;align=center;verticalAlign=middle;whiteSpace=wrap;rounded=0;" parent="1" vertex="1">
          <mxGeometry x="770" y="300" width="110" height="20" as="geometry" />
        </mxCell>
        <mxCell id="ai0uu60qTlfoPeeWs3AL-9" value="" style="rounded=0;whiteSpace=wrap;html=1;fillColor=#dae8fc;strokeColor=#6c8ebf;" parent="1" vertex="1">
          <mxGeometry x="782.5" y="330" width="97.5" height="40" as="geometry" />
        </mxCell>
        <mxCell id="ai0uu60qTlfoPeeWs3AL-10" value="Coding and &lt;br&gt;Diagnostic" style="text;html=1;strokeColor=none;fillColor=none;align=center;verticalAlign=middle;whiteSpace=wrap;rounded=0;" parent="1" vertex="1">
          <mxGeometry x="770" y="340" width="130" height="20" as="geometry" />
        </mxCell>
        <mxCell id="ai0uu60qTlfoPeeWs3AL-11" value="Flashing" style="rounded=0;whiteSpace=wrap;html=1;fillColor=#dae8fc;strokeColor=#6c8ebf;" parent="1" vertex="1">
          <mxGeometry x="890" y="330" width="67.5" height="40" as="geometry" />
        </mxCell>
        <mxCell id="ai0uu60qTlfoPeeWs3AL-13" value="NAD Manager" style="rounded=0;whiteSpace=wrap;html=1;fillColor=#d5e8d4;strokeColor=#82b366;" parent="1" vertex="1">
          <mxGeometry x="791.25" y="385" width="88.75" height="55" as="geometry" />
        </mxCell>
        <mxCell id="ai0uu60qTlfoPeeWs3AL-41" style="edgeStyle=orthogonalEdgeStyle;rounded=0;orthogonalLoop=1;jettySize=auto;html=1;exitX=0.5;exitY=1;exitDx=0;exitDy=0;entryX=0.167;entryY=0.8;entryDx=0;entryDy=0;entryPerimeter=0;" parent="1" source="ai0uu60qTlfoPeeWs3AL-14" target="ai0uu60qTlfoPeeWs3AL-17" edge="1">
          <mxGeometry relative="1" as="geometry" />
        </mxCell>
        <mxCell id="ai0uu60qTlfoPeeWs3AL-14" value="" style="rounded=0;whiteSpace=wrap;html=1;fillColor=#B3B3B3;" parent="1" vertex="1">
          <mxGeometry x="160" y="520" width="370" height="40" as="geometry" />
        </mxCell>
        <mxCell id="ai0uu60qTlfoPeeWs3AL-15" value="Mediatek/Qualcomm" style="text;html=1;strokeColor=none;fillColor=none;align=center;verticalAlign=middle;whiteSpace=wrap;rounded=0;" parent="1" vertex="1">
          <mxGeometry x="360" y="530" width="40" height="20" as="geometry" />
        </mxCell>
        <mxCell id="ai0uu60qTlfoPeeWs3AL-16" value="3G/4G/5G Modem" style="rounded=0;whiteSpace=wrap;html=1;fillColor=#B3B3B3;" parent="1" vertex="1">
          <mxGeometry x="165" y="525" width="60" height="30" as="geometry" />
        </mxCell>
        <mxCell id="ai0uu60qTlfoPeeWs3AL-17" value="Ethernet Switch" style="rounded=0;whiteSpace=wrap;html=1;fillColor=#B3B3B3;" parent="1" vertex="1">
          <mxGeometry x="780" y="540" width="120" height="50" as="geometry" />
        </mxCell>
        <mxCell id="ai0uu60qTlfoPeeWs3AL-18" value="TI jackinto 7" style="text;html=1;strokeColor=none;fillColor=none;align=center;verticalAlign=middle;whiteSpace=wrap;rounded=0;" parent="1" vertex="1">
          <mxGeometry x="1010" y="535" width="67.5" height="20" as="geometry" />
        </mxCell>
        <mxCell id="ai0uu60qTlfoPeeWs3AL-42" style="edgeStyle=orthogonalEdgeStyle;rounded=0;orthogonalLoop=1;jettySize=auto;html=1;exitX=0.5;exitY=0;exitDx=0;exitDy=0;endArrow=none;endFill=0;" parent="1" source="ai0uu60qTlfoPeeWs3AL-19" edge="1">
          <mxGeometry relative="1" as="geometry">
            <mxPoint x="1022" y="610" as="targetPoint" />
          </mxGeometry>
        </mxCell>
        <mxCell id="ai0uu60qTlfoPeeWs3AL-19" value="GNSS" style="rounded=0;whiteSpace=wrap;html=1;fillColor=#B3B3B3;" parent="1" vertex="1">
          <mxGeometry x="1000" y="640" width="50" height="30" as="geometry" />
        </mxCell>
        <mxCell id="ai0uu60qTlfoPeeWs3AL-43" style="edgeStyle=orthogonalEdgeStyle;rounded=0;orthogonalLoop=1;jettySize=auto;html=1;exitX=0.5;exitY=0;exitDx=0;exitDy=0;entryX=0.825;entryY=1;entryDx=0;entryDy=0;entryPerimeter=0;endArrow=none;endFill=0;" parent="1" source="ai0uu60qTlfoPeeWs3AL-20" target="Va2-3wq0Z1bts3xlkRKC-6" edge="1">
          <mxGeometry relative="1" as="geometry" />
        </mxCell>
        <mxCell id="ai0uu60qTlfoPeeWs3AL-20" value="WiFi/ Bluetooth" style="rounded=0;whiteSpace=wrap;html=1;fillColor=#B3B3B3;" parent="1" vertex="1">
          <mxGeometry x="1112.5" y="640" width="50" height="30" as="geometry" />
        </mxCell>
        <mxCell id="ai0uu60qTlfoPeeWs3AL-45" style="edgeStyle=orthogonalEdgeStyle;rounded=0;orthogonalLoop=1;jettySize=auto;html=1;exitX=1;exitY=0.5;exitDx=0;exitDy=0;entryX=-0.002;entryY=0.853;entryDx=0;entryDy=0;entryPerimeter=0;endArrow=none;endFill=0;" parent="1" source="ai0uu60qTlfoPeeWs3AL-22" target="Va2-3wq0Z1bts3xlkRKC-6" edge="1">
          <mxGeometry relative="1" as="geometry">
            <Array as="points">
              <mxPoint x="739" y="538" />
            </Array>
          </mxGeometry>
        </mxCell>
        <mxCell id="ai0uu60qTlfoPeeWs3AL-22" value="WUC" style="rounded=0;whiteSpace=wrap;html=1;fillColor=#B3B3B3;" parent="1" vertex="1">
          <mxGeometry x="575" y="515" width="130" height="45" as="geometry" />
        </mxCell>
        <mxCell id="ai0uu60qTlfoPeeWs3AL-25" value="application&lt;br&gt;manager" style="rounded=0;whiteSpace=wrap;html=1;fillColor=#d5e8d4;strokeColor=#82b366;" parent="1" vertex="1">
          <mxGeometry x="440" y="325" width="60" height="30" as="geometry" />
        </mxCell>
        <mxCell id="ai0uu60qTlfoPeeWs3AL-26" value="Time&lt;br&gt;manager" style="rounded=0;whiteSpace=wrap;html=1;fillColor=#d5e8d4;strokeColor=#82b366;" parent="1" vertex="1">
          <mxGeometry x="435" y="365" width="70" height="30" as="geometry" />
        </mxCell>
        <mxCell id="ai0uu60qTlfoPeeWs3AL-27" value="SW update" style="rounded=0;whiteSpace=wrap;html=1;fillColor=#d5e8d4;strokeColor=#82b366;" parent="1" vertex="1">
          <mxGeometry x="255" y="405" width="70" height="30" as="geometry" />
        </mxCell>
        <mxCell id="ai0uu60qTlfoPeeWs3AL-28" value="Audio Mgr" style="rounded=0;whiteSpace=wrap;html=1;fillColor=#d5e8d4;strokeColor=#82b366;" parent="1" vertex="1">
          <mxGeometry x="345" y="405" width="70" height="30" as="geometry" />
        </mxCell>
        <mxCell id="ai0uu60qTlfoPeeWs3AL-30" value="Bluetooth Mgr" style="rounded=0;whiteSpace=wrap;html=1;fillColor=#d5e8d4;strokeColor=#82b366;" parent="1" vertex="1">
          <mxGeometry x="982.5" y="330" width="67.5" height="40" as="geometry" />
        </mxCell>
        <mxCell id="ai0uu60qTlfoPeeWs3AL-31" value="WiFi Mgr" style="rounded=0;whiteSpace=wrap;html=1;fillColor=#d5e8d4;strokeColor=#82b366;" parent="1" vertex="1">
          <mxGeometry x="1080" y="330" width="67.5" height="40" as="geometry" />
        </mxCell>
        <mxCell id="ai0uu60qTlfoPeeWs3AL-32" value="GNSS Mgr" style="rounded=0;whiteSpace=wrap;html=1;fillColor=#d5e8d4;strokeColor=#82b366;" parent="1" vertex="1">
          <mxGeometry x="1112.5" y="395" width="67.5" height="40" as="geometry" />
        </mxCell>
        <mxCell id="ai0uu60qTlfoPeeWs3AL-33" value="LifeCycle" style="rounded=0;whiteSpace=wrap;html=1;fillColor=#dae8fc;strokeColor=#6c8ebf;" parent="1" vertex="1">
          <mxGeometry x="900" y="392.5" width="97.5" height="40" as="geometry" />
        </mxCell>
        <mxCell id="ai0uu60qTlfoPeeWs3AL-34" value="Health Mgr" style="rounded=0;whiteSpace=wrap;html=1;fillColor=#dae8fc;strokeColor=#6c8ebf;" parent="1" vertex="1">
          <mxGeometry x="1010" y="397.5" width="70" height="35" as="geometry" />
        </mxCell>
        <mxCell id="ai0uu60qTlfoPeeWs3AL-36" value="DTS" style="rounded=0;whiteSpace=wrap;html=1;fillColor=#dae8fc;strokeColor=#6c8ebf;" parent="1" vertex="1">
          <mxGeometry x="1030" y="230" width="60" height="20" as="geometry" />
        </mxCell>
        <mxCell id="ai0uu60qTlfoPeeWs3AL-37" value="provisioning service" style="rounded=0;whiteSpace=wrap;html=1;fillColor=#dae8fc;strokeColor=#6c8ebf;" parent="1" vertex="1">
          <mxGeometry x="1030" y="255" width="80" height="30" as="geometry" />
        </mxCell>
        <mxCell id="ai0uu60qTlfoPeeWs3AL-38" value="MCP" style="rounded=0;whiteSpace=wrap;html=1;fillColor=#dae8fc;strokeColor=#6c8ebf;" parent="1" vertex="1">
          <mxGeometry x="1102.5" y="230" width="60" height="20" as="geometry" />
        </mxCell>
        <mxCell id="ai0uu60qTlfoPeeWs3AL-40" value="" style="endArrow=none;html=1;exitX=1;exitY=0.5;exitDx=0;exitDy=0;" parent="1" source="ai0uu60qTlfoPeeWs3AL-14" edge="1">
          <mxGeometry width="50" height="50" relative="1" as="geometry">
            <mxPoint x="700" y="320" as="sourcePoint" />
            <mxPoint x="570" y="540" as="targetPoint" />
          </mxGeometry>
        </mxCell>
        <mxCell id="ai0uu60qTlfoPeeWs3AL-46" value="Applications" style="text;html=1;strokeColor=none;fillColor=none;align=center;verticalAlign=middle;whiteSpace=wrap;rounded=0;" parent="1" vertex="1">
          <mxGeometry x="270" y="222.5" width="40" height="20" as="geometry" />
        </mxCell>
        <mxCell id="ai0uu60qTlfoPeeWs3AL-47" value="Ethernet" style="text;html=1;strokeColor=none;fillColor=none;align=center;verticalAlign=middle;whiteSpace=wrap;rounded=0;" parent="1" vertex="1">
          <mxGeometry x="490" y="580" width="40" height="20" as="geometry" />
        </mxCell>
        <mxCell id="ai0uu60qTlfoPeeWs3AL-48" value="SPI" style="text;html=1;strokeColor=none;fillColor=none;align=center;verticalAlign=middle;whiteSpace=wrap;rounded=0;" parent="1" vertex="1">
          <mxGeometry x="530" y="520" width="40" height="20" as="geometry" />
        </mxCell>
        <mxCell id="ai0uu60qTlfoPeeWs3AL-49" value="SPI" style="text;html=1;strokeColor=none;fillColor=none;align=center;verticalAlign=middle;whiteSpace=wrap;rounded=0;" parent="1" vertex="1">
          <mxGeometry x="710" y="515" width="40" height="20" as="geometry" />
        </mxCell>
        <mxCell id="ai0uu60qTlfoPeeWs3AL-50" value="PCIe" style="text;html=1;strokeColor=none;fillColor=none;align=center;verticalAlign=middle;whiteSpace=wrap;rounded=0;" parent="1" vertex="1">
          <mxGeometry x="1130" y="620" width="40" height="20" as="geometry" />
        </mxCell>
        <mxCell id="ai0uu60qTlfoPeeWs3AL-51" value="SPI" style="text;html=1;strokeColor=none;fillColor=none;align=center;verticalAlign=middle;whiteSpace=wrap;rounded=0;" parent="1" vertex="1">
          <mxGeometry x="990" y="610" width="40" height="20" as="geometry" />
        </mxCell>
        <mxCell id="ai0uu60qTlfoPeeWs3AL-52" value="" style="rounded=0;whiteSpace=wrap;html=1;fillColor=none;dashed=1;strokeColor=#FF0000;" parent="1" vertex="1">
          <mxGeometry x="427.5" y="410" width="85" height="50" as="geometry" />
        </mxCell>
        <mxCell id="ai0uu60qTlfoPeeWs3AL-53" value="" style="rounded=0;whiteSpace=wrap;html=1;fillColor=none;dashed=1;strokeColor=#FF0000;" parent="1" vertex="1">
          <mxGeometry x="781.25" y="380" width="107.5" height="67.5" as="geometry" />
        </mxCell>
        <mxCell id="ai0uu60qTlfoPeeWs3AL-54" value="" style="rounded=0;whiteSpace=wrap;html=1;fillColor=none;" parent="1" vertex="1">
          <mxGeometry x="897.5" y="700" width="342.5" height="160" as="geometry" />
        </mxCell>
        <mxCell id="ai0uu60qTlfoPeeWs3AL-55" value="" style="rounded=0;whiteSpace=wrap;html=1;strokeColor=#82b366;fillColor=#d5e8d4;" parent="1" vertex="1">
          <mxGeometry x="1090" y="780" width="50" height="30" as="geometry" />
        </mxCell>
        <mxCell id="ai0uu60qTlfoPeeWs3AL-56" value="" style="rounded=0;whiteSpace=wrap;html=1;strokeColor=#6c8ebf;fillColor=#dae8fc;" parent="1" vertex="1">
          <mxGeometry x="905" y="740" width="50" height="30" as="geometry" />
        </mxCell>
        <mxCell id="ai0uu60qTlfoPeeWs3AL-57" value="" style="rounded=0;whiteSpace=wrap;html=1;strokeColor=#d6b656;fillColor=#fff2cc;" parent="1" vertex="1">
          <mxGeometry x="905" y="780" width="50" height="30" as="geometry" />
        </mxCell>
        <mxCell id="ai0uu60qTlfoPeeWs3AL-58" value="" style="rounded=0;whiteSpace=wrap;html=1;strokeColor=none;fillColor=#B3B3B3;" parent="1" vertex="1">
          <mxGeometry x="905" y="820" width="50" height="30" as="geometry" />
        </mxCell>
        <mxCell id="ai0uu60qTlfoPeeWs3AL-60" value="" style="rounded=0;whiteSpace=wrap;html=1;fillColor=none;strokeColor=#FF0000;dashed=1;" parent="1" vertex="1">
          <mxGeometry x="1092.5" y="740" width="50" height="30" as="geometry" />
        </mxCell>
        <mxCell id="ai0uu60qTlfoPeeWs3AL-63" value="BMW owner" style="text;html=1;strokeColor=none;fillColor=none;align=center;verticalAlign=middle;whiteSpace=wrap;rounded=0;dashed=1;" parent="1" vertex="1">
          <mxGeometry x="965" y="745" width="85" height="20" as="geometry" />
        </mxCell>
        <mxCell id="ai0uu60qTlfoPeeWs3AL-64" value="LGE owner" style="text;html=1;strokeColor=none;fillColor=none;align=center;verticalAlign=middle;whiteSpace=wrap;rounded=0;dashed=1;" parent="1" vertex="1">
          <mxGeometry x="1150" y="785" width="85" height="20" as="geometry" />
        </mxCell>
        <mxCell id="ai0uu60qTlfoPeeWs3AL-65" value="3rd Party" style="text;html=1;strokeColor=none;fillColor=none;align=center;verticalAlign=middle;whiteSpace=wrap;rounded=0;dashed=1;" parent="1" vertex="1">
          <mxGeometry x="965" y="785" width="85" height="20" as="geometry" />
        </mxCell>
        <mxCell id="ai0uu60qTlfoPeeWs3AL-66" value="Hardware&amp;nbsp;" style="text;html=1;strokeColor=none;fillColor=none;align=center;verticalAlign=middle;whiteSpace=wrap;rounded=0;dashed=1;" parent="1" vertex="1">
          <mxGeometry x="960" y="825" width="85" height="20" as="geometry" />
        </mxCell>
        <mxCell id="ai0uu60qTlfoPeeWs3AL-67" value="System boundary" style="text;html=1;strokeColor=none;fillColor=none;align=center;verticalAlign=middle;whiteSpace=wrap;rounded=0;dashed=1;" parent="1" vertex="1">
          <mxGeometry x="1142.5" y="745" width="85" height="20" as="geometry" />
        </mxCell>
        <mxCell id="ai0uu60qTlfoPeeWs3AL-68" value="Legend" style="text;html=1;strokeColor=none;fillColor=none;align=center;verticalAlign=middle;whiteSpace=wrap;rounded=0;dashed=1;" parent="1" vertex="1">
          <mxGeometry x="905" y="700" width="40" height="20" as="geometry" />
        </mxCell>
      </root>
    </mxGraphModel>
  </diagram>
  <diagram id="RfMhy2c3iOoHiROHVdAv" name="NAD">
    <mxGraphModel dx="1422" dy="822" grid="1" gridSize="10" guides="1" tooltips="1" connect="1" arrows="1" fold="1" page="1" pageScale="1" pageWidth="850" pageHeight="1100" math="0" shadow="0">
      <root>
        <mxCell id="_MSfownOL7amd91txxgT-0" />
        <mxCell id="_MSfownOL7amd91txxgT-1" parent="_MSfownOL7amd91txxgT-0" />
        <mxCell id="_MSfownOL7amd91txxgT-2" value="" style="rounded=0;whiteSpace=wrap;html=1;" parent="_MSfownOL7amd91txxgT-1" vertex="1">
          <mxGeometry x="110" y="120" width="1020" height="920" as="geometry" />
        </mxCell>
        <mxCell id="_MSfownOL7amd91txxgT-3" value="" style="rounded=0;whiteSpace=wrap;html=1;" parent="_MSfownOL7amd91txxgT-1" vertex="1">
          <mxGeometry x="140" y="170" width="270" height="610" as="geometry" />
        </mxCell>
        <mxCell id="_MSfownOL7amd91txxgT-4" value="Q6" style="text;html=1;strokeColor=none;fillColor=none;align=center;verticalAlign=middle;whiteSpace=wrap;rounded=0;" parent="_MSfownOL7amd91txxgT-1" vertex="1">
          <mxGeometry x="160" y="180" width="40" height="20" as="geometry" />
        </mxCell>
        <mxCell id="_MSfownOL7amd91txxgT-5" value="" style="rounded=0;whiteSpace=wrap;html=1;" parent="_MSfownOL7amd91txxgT-1" vertex="1">
          <mxGeometry x="520" y="170" width="560" height="860" as="geometry" />
        </mxCell>
        <mxCell id="_MSfownOL7amd91txxgT-6" value="A7" style="text;html=1;strokeColor=none;fillColor=none;align=center;verticalAlign=middle;whiteSpace=wrap;rounded=0;" parent="_MSfownOL7amd91txxgT-1" vertex="1">
          <mxGeometry x="525" y="180" width="40" height="20" as="geometry" />
        </mxCell>
        <mxCell id="_MSfownOL7amd91txxgT-7" value="" style="rounded=0;whiteSpace=wrap;html=1;" parent="_MSfownOL7amd91txxgT-1" vertex="1">
          <mxGeometry x="160" y="220" width="220" height="170" as="geometry" />
        </mxCell>
        <mxCell id="_MSfownOL7amd91txxgT-8" value="Service Layer" style="text;html=1;strokeColor=none;fillColor=none;align=center;verticalAlign=middle;whiteSpace=wrap;rounded=0;" parent="_MSfownOL7amd91txxgT-1" vertex="1">
          <mxGeometry x="170" y="220" width="80" height="20" as="geometry" />
        </mxCell>
        <mxCell id="_MSfownOL7amd91txxgT-9" value="&lt;br&gt;Data service" style="rounded=0;whiteSpace=wrap;html=1;fillColor=#f5f5f5;strokeColor=#666666;fontColor=#333333;" parent="_MSfownOL7amd91txxgT-1" vertex="1">
          <mxGeometry x="180" y="260" width="90" height="50" as="geometry" />
        </mxCell>
        <mxCell id="_MSfownOL7amd91txxgT-10" value="QMI" style="rounded=0;whiteSpace=wrap;html=1;fillColor=#f5f5f5;strokeColor=#666666;fontColor=#333333;" parent="_MSfownOL7amd91txxgT-1" vertex="1">
          <mxGeometry x="280" y="260" width="90" height="50" as="geometry" />
        </mxCell>
        <mxCell id="_MSfownOL7amd91txxgT-11" value="IMS" style="rounded=0;whiteSpace=wrap;html=1;fillColor=#f5f5f5;strokeColor=#666666;fontColor=#333333;" parent="_MSfownOL7amd91txxgT-1" vertex="1">
          <mxGeometry x="180" y="320" width="90" height="50" as="geometry" />
        </mxCell>
        <mxCell id="_MSfownOL7amd91txxgT-12" value="Multi-model control" style="rounded=0;whiteSpace=wrap;html=1;fillColor=#f5f5f5;strokeColor=#666666;fontColor=#333333;" parent="_MSfownOL7amd91txxgT-1" vertex="1">
          <mxGeometry x="280" y="320" width="90" height="50" as="geometry" />
        </mxCell>
        <mxCell id="_MSfownOL7amd91txxgT-13" value="" style="rounded=0;whiteSpace=wrap;html=1;" parent="_MSfownOL7amd91txxgT-1" vertex="1">
          <mxGeometry x="160" y="400" width="220" height="150" as="geometry" />
        </mxCell>
        <mxCell id="_MSfownOL7amd91txxgT-14" value="Protocol stack" style="text;html=1;strokeColor=none;fillColor=none;align=center;verticalAlign=middle;whiteSpace=wrap;rounded=0;" parent="_MSfownOL7amd91txxgT-1" vertex="1">
          <mxGeometry x="160" y="400" width="80" height="20" as="geometry" />
        </mxCell>
        <mxCell id="_MSfownOL7amd91txxgT-15" value="5G-NR" style="rounded=0;whiteSpace=wrap;html=1;fillColor=#f5f5f5;strokeColor=#666666;fontColor=#333333;" parent="_MSfownOL7amd91txxgT-1" vertex="1">
          <mxGeometry x="165" y="430" width="90" height="50" as="geometry" />
        </mxCell>
        <mxCell id="_MSfownOL7amd91txxgT-16" value="LTE" style="rounded=0;whiteSpace=wrap;html=1;fillColor=#f5f5f5;strokeColor=#666666;fontColor=#333333;" parent="_MSfownOL7amd91txxgT-1" vertex="1">
          <mxGeometry x="270" y="430" width="90" height="50" as="geometry" />
        </mxCell>
        <mxCell id="_MSfownOL7amd91txxgT-17" value="GNSS" style="rounded=0;whiteSpace=wrap;html=1;fillColor=#f5f5f5;strokeColor=#666666;fontColor=#333333;" parent="_MSfownOL7amd91txxgT-1" vertex="1">
          <mxGeometry x="165" y="490" width="90" height="50" as="geometry" />
        </mxCell>
        <mxCell id="_MSfownOL7amd91txxgT-18" value="CV2X" style="rounded=0;whiteSpace=wrap;html=1;fillColor=#f5f5f5;strokeColor=#666666;fontColor=#333333;" parent="_MSfownOL7amd91txxgT-1" vertex="1">
          <mxGeometry x="270" y="490" width="90" height="50" as="geometry" />
        </mxCell>
        <mxCell id="_MSfownOL7amd91txxgT-19" value="" style="rounded=0;whiteSpace=wrap;html=1;" parent="_MSfownOL7amd91txxgT-1" vertex="1">
          <mxGeometry x="160" y="570" width="220" height="200" as="geometry" />
        </mxCell>
        <mxCell id="_MSfownOL7amd91txxgT-20" value="System/ OS Layer" style="text;html=1;strokeColor=none;fillColor=none;align=center;verticalAlign=middle;whiteSpace=wrap;rounded=0;" parent="_MSfownOL7amd91txxgT-1" vertex="1">
          <mxGeometry x="150" y="570" width="140" height="20" as="geometry" />
        </mxCell>
        <mxCell id="_MSfownOL7amd91txxgT-21" value="GPIO" style="rounded=0;whiteSpace=wrap;html=1;fillColor=#f5f5f5;strokeColor=#666666;fontColor=#333333;" parent="_MSfownOL7amd91txxgT-1" vertex="1">
          <mxGeometry x="170" y="600" width="90" height="50" as="geometry" />
        </mxCell>
        <mxCell id="_MSfownOL7amd91txxgT-22" value="Flash" style="rounded=0;whiteSpace=wrap;html=1;fillColor=#f5f5f5;strokeColor=#666666;fontColor=#333333;" parent="_MSfownOL7amd91txxgT-1" vertex="1">
          <mxGeometry x="280" y="600" width="90" height="50" as="geometry" />
        </mxCell>
        <mxCell id="_MSfownOL7amd91txxgT-23" value="SMD" style="rounded=0;whiteSpace=wrap;html=1;fillColor=#f5f5f5;strokeColor=#666666;fontColor=#333333;" parent="_MSfownOL7amd91txxgT-1" vertex="1">
          <mxGeometry x="170" y="660" width="90" height="50" as="geometry" />
        </mxCell>
        <mxCell id="_MSfownOL7amd91txxgT-24" value="RTOS" style="rounded=0;whiteSpace=wrap;html=1;fillColor=#f5f5f5;strokeColor=#666666;fontColor=#333333;" parent="_MSfownOL7amd91txxgT-1" vertex="1">
          <mxGeometry x="220" y="720" width="100" height="40" as="geometry" />
        </mxCell>
        <mxCell id="_MSfownOL7amd91txxgT-25" value="" style="rounded=0;whiteSpace=wrap;html=1;" parent="_MSfownOL7amd91txxgT-1" vertex="1">
          <mxGeometry x="550" y="210" width="370" height="150" as="geometry" />
        </mxCell>
        <mxCell id="_MSfownOL7amd91txxgT-26" value="Application" style="text;html=1;strokeColor=none;fillColor=none;align=center;verticalAlign=middle;whiteSpace=wrap;rounded=0;" parent="_MSfownOL7amd91txxgT-1" vertex="1">
          <mxGeometry x="560" y="210" width="80" height="20" as="geometry" />
        </mxCell>
        <mxCell id="_MSfownOL7amd91txxgT-27" value="" style="rounded=0;whiteSpace=wrap;html=1;" parent="_MSfownOL7amd91txxgT-1" vertex="1">
          <mxGeometry x="550" y="380" width="460" height="340" as="geometry" />
        </mxCell>
        <mxCell id="_MSfownOL7amd91txxgT-28" value="Telematics Framework" style="text;html=1;strokeColor=none;fillColor=none;align=center;verticalAlign=middle;whiteSpace=wrap;rounded=0;" parent="_MSfownOL7amd91txxgT-1" vertex="1">
          <mxGeometry x="550" y="380" width="140" height="20" as="geometry" />
        </mxCell>
        <mxCell id="_MSfownOL7amd91txxgT-29" value="" style="rounded=0;whiteSpace=wrap;html=1;" parent="_MSfownOL7amd91txxgT-1" vertex="1">
          <mxGeometry x="550" y="740" width="470" height="130" as="geometry" />
        </mxCell>
        <mxCell id="_MSfownOL7amd91txxgT-30" value="Middleware&amp;nbsp;" style="text;html=1;strokeColor=none;fillColor=none;align=center;verticalAlign=middle;whiteSpace=wrap;rounded=0;" parent="_MSfownOL7amd91txxgT-1" vertex="1">
          <mxGeometry x="520" y="740" width="140" height="20" as="geometry" />
        </mxCell>
        <mxCell id="_MSfownOL7amd91txxgT-31" value="Boot loader" style="rounded=0;whiteSpace=wrap;html=1;fillColor=#f5f5f5;strokeColor=#666666;fontColor=#333333;" parent="_MSfownOL7amd91txxgT-1" vertex="1">
          <mxGeometry x="542.5" y="910" width="120" height="60" as="geometry" />
        </mxCell>
        <mxCell id="_MSfownOL7amd91txxgT-32" value="" style="rounded=0;whiteSpace=wrap;html=1;" parent="_MSfownOL7amd91txxgT-1" vertex="1">
          <mxGeometry x="695" y="910" width="355" height="110" as="geometry" />
        </mxCell>
        <mxCell id="_MSfownOL7amd91txxgT-33" value="Linux Kernel" style="text;html=1;strokeColor=none;fillColor=none;align=center;verticalAlign=middle;whiteSpace=wrap;rounded=0;" parent="_MSfownOL7amd91txxgT-1" vertex="1">
          <mxGeometry x="700" y="920" width="70" height="20" as="geometry" />
        </mxCell>
        <mxCell id="_MSfownOL7amd91txxgT-34" value="EU ecall" style="rounded=0;whiteSpace=wrap;html=1;fillColor=#dae8fc;strokeColor=#6c8ebf;" parent="_MSfownOL7amd91txxgT-1" vertex="1">
          <mxGeometry x="555" y="240" width="90" height="50" as="geometry" />
        </mxCell>
        <mxCell id="_MSfownOL7amd91txxgT-35" value="BMW ecall" style="rounded=0;whiteSpace=wrap;html=1;fillColor=#dae8fc;strokeColor=#6c8ebf;" parent="_MSfownOL7amd91txxgT-1" vertex="1">
          <mxGeometry x="660" y="240" width="90" height="50" as="geometry" />
        </mxCell>
        <mxCell id="_MSfownOL7amd91txxgT-36" value="ERA ecall" style="rounded=0;whiteSpace=wrap;html=1;fillColor=#dae8fc;strokeColor=#6c8ebf;" parent="_MSfownOL7amd91txxgT-1" vertex="1">
          <mxGeometry x="760" y="240" width="90" height="50" as="geometry" />
        </mxCell>
        <mxCell id="_MSfownOL7amd91txxgT-37" value="PSAP ecall" style="rounded=0;whiteSpace=wrap;html=1;fillColor=#dae8fc;strokeColor=#6c8ebf;" parent="_MSfownOL7amd91txxgT-1" vertex="1">
          <mxGeometry x="555" y="300" width="90" height="50" as="geometry" />
        </mxCell>
        <mxCell id="_MSfownOL7amd91txxgT-38" value="GSC ecall" style="rounded=0;whiteSpace=wrap;html=1;fillColor=#dae8fc;strokeColor=#6c8ebf;" parent="_MSfownOL7amd91txxgT-1" vertex="1">
          <mxGeometry x="660" y="300" width="90" height="50" as="geometry" />
        </mxCell>
        <mxCell id="_MSfownOL7amd91txxgT-39" value="modem logger" style="rounded=0;whiteSpace=wrap;html=1;" parent="_MSfownOL7amd91txxgT-1" vertex="1">
          <mxGeometry x="565" y="410" width="75" height="40" as="geometry" />
        </mxCell>
        <mxCell id="_MSfownOL7amd91txxgT-40" value="IPsec Manager" style="rounded=0;whiteSpace=wrap;html=1;" parent="_MSfownOL7amd91txxgT-1" vertex="1">
          <mxGeometry x="660" y="410" width="75" height="40" as="geometry" />
        </mxCell>
        <mxCell id="_MSfownOL7amd91txxgT-41" value="Alarm manager" style="rounded=0;whiteSpace=wrap;html=1;" parent="_MSfownOL7amd91txxgT-1" vertex="1">
          <mxGeometry x="750" y="410" width="75" height="40" as="geometry" />
        </mxCell>
        <mxCell id="_MSfownOL7amd91txxgT-42" value="SysInfor Manager" style="rounded=0;whiteSpace=wrap;html=1;" parent="_MSfownOL7amd91txxgT-1" vertex="1">
          <mxGeometry x="830" y="410" width="75" height="40" as="geometry" />
        </mxCell>
        <mxCell id="_MSfownOL7amd91txxgT-43" value="V2X Stack" style="rounded=0;whiteSpace=wrap;html=1;fillColor=#60a917;strokeColor=#2D7600;fontColor=#ffffff;" parent="_MSfownOL7amd91txxgT-1" vertex="1">
          <mxGeometry x="562.5" y="455" width="75" height="40" as="geometry" />
        </mxCell>
        <mxCell id="_MSfownOL7amd91txxgT-44" value="V2X manager" style="rounded=0;whiteSpace=wrap;html=1;fillColor=#60a917;strokeColor=#2D7600;fontColor=#ffffff;" parent="_MSfownOL7amd91txxgT-1" vertex="1">
          <mxGeometry x="660" y="455" width="75" height="40" as="geometry" />
        </mxCell>
        <mxCell id="_MSfownOL7amd91txxgT-45" value="Telephony manager" style="rounded=0;whiteSpace=wrap;html=1;" parent="_MSfownOL7amd91txxgT-1" vertex="1">
          <mxGeometry x="750" y="455" width="75" height="40" as="geometry" />
        </mxCell>
        <mxCell id="_MSfownOL7amd91txxgT-46" value="App manager" style="rounded=0;whiteSpace=wrap;html=1;" parent="_MSfownOL7amd91txxgT-1" vertex="1">
          <mxGeometry x="920" y="410" width="75" height="40" as="geometry" />
        </mxCell>
        <mxCell id="_MSfownOL7amd91txxgT-47" value="Power manager" style="rounded=0;whiteSpace=wrap;html=1;" parent="_MSfownOL7amd91txxgT-1" vertex="1">
          <mxGeometry x="562.5" y="510" width="75" height="40" as="geometry" />
        </mxCell>
        <mxCell id="_MSfownOL7amd91txxgT-48" value="HMI manager" style="rounded=0;whiteSpace=wrap;html=1;" parent="_MSfownOL7amd91txxgT-1" vertex="1">
          <mxGeometry x="660" y="510" width="75" height="40" as="geometry" />
        </mxCell>
        <mxCell id="_MSfownOL7amd91txxgT-49" value="eCall manager" style="rounded=0;whiteSpace=wrap;html=1;" parent="_MSfownOL7amd91txxgT-1" vertex="1">
          <mxGeometry x="920" y="460" width="75" height="40" as="geometry" />
        </mxCell>
        <mxCell id="_MSfownOL7amd91txxgT-50" value="Security manager" style="rounded=0;whiteSpace=wrap;html=1;" parent="_MSfownOL7amd91txxgT-1" vertex="1">
          <mxGeometry x="830" y="455" width="75" height="40" as="geometry" />
        </mxCell>
        <mxCell id="_MSfownOL7amd91txxgT-51" value="Route manager" style="rounded=0;whiteSpace=wrap;html=1;" parent="_MSfownOL7amd91txxgT-1" vertex="1">
          <mxGeometry x="750" y="510" width="75" height="40" as="geometry" />
        </mxCell>
        <mxCell id="_MSfownOL7amd91txxgT-52" value="someIP provider" style="rounded=0;whiteSpace=wrap;html=1;" parent="_MSfownOL7amd91txxgT-1" vertex="1">
          <mxGeometry x="560" y="560" width="75" height="40" as="geometry" />
        </mxCell>
        <mxCell id="_MSfownOL7amd91txxgT-53" value="someIP consumer" style="rounded=0;whiteSpace=wrap;html=1;" parent="_MSfownOL7amd91txxgT-1" vertex="1">
          <mxGeometry x="830" y="510" width="75" height="40" as="geometry" />
        </mxCell>
        <mxCell id="_MSfownOL7amd91txxgT-54" value="SW update" style="rounded=0;whiteSpace=wrap;html=1;fillColor=#60a917;strokeColor=#2D7600;fontColor=#ffffff;" parent="_MSfownOL7amd91txxgT-1" vertex="1">
          <mxGeometry x="920" y="510" width="75" height="40" as="geometry" />
        </mxCell>
        <mxCell id="_MSfownOL7amd91txxgT-55" value="Location manager" style="rounded=0;whiteSpace=wrap;html=1;" parent="_MSfownOL7amd91txxgT-1" vertex="1">
          <mxGeometry x="560" y="620" width="75" height="40" as="geometry" />
        </mxCell>
        <mxCell id="_MSfownOL7amd91txxgT-56" value="Antenna manager" style="rounded=0;whiteSpace=wrap;html=1;" parent="_MSfownOL7amd91txxgT-1" vertex="1">
          <mxGeometry x="655" y="560" width="75" height="40" as="geometry" />
        </mxCell>
        <mxCell id="_MSfownOL7amd91txxgT-60" value="Config manager" style="rounded=0;whiteSpace=wrap;html=1;" parent="_MSfownOL7amd91txxgT-1" vertex="1">
          <mxGeometry x="750" y="560" width="75" height="40" as="geometry" />
        </mxCell>
        <mxCell id="_MSfownOL7amd91txxgT-61" value="Diag manager" style="rounded=0;whiteSpace=wrap;html=1;" parent="_MSfownOL7amd91txxgT-1" vertex="1">
          <mxGeometry x="830" y="560" width="75" height="40" as="geometry" />
        </mxCell>
        <mxCell id="_MSfownOL7amd91txxgT-62" value="Ethernet manager" style="rounded=0;whiteSpace=wrap;html=1;" parent="_MSfownOL7amd91txxgT-1" vertex="1">
          <mxGeometry x="920" y="560" width="75" height="40" as="geometry" />
        </mxCell>
        <mxCell id="_MSfownOL7amd91txxgT-63" value="Remote IF manager" style="rounded=0;whiteSpace=wrap;html=1;" parent="_MSfownOL7amd91txxgT-1" vertex="1">
          <mxGeometry x="655" y="620" width="75" height="40" as="geometry" />
        </mxCell>
        <mxCell id="_MSfownOL7amd91txxgT-64" value="VoIP manager" style="rounded=0;whiteSpace=wrap;html=1;" parent="_MSfownOL7amd91txxgT-1" vertex="1">
          <mxGeometry x="750" y="620" width="75" height="40" as="geometry" />
        </mxCell>
        <mxCell id="_MSfownOL7amd91txxgT-65" value="NAD Proxy" style="rounded=0;whiteSpace=wrap;html=1;fillColor=#60a917;strokeColor=#2D7600;fontColor=#ffffff;" parent="_MSfownOL7amd91txxgT-1" vertex="1">
          <mxGeometry x="830" y="620" width="75" height="40" as="geometry" />
        </mxCell>
        <mxCell id="_MSfownOL7amd91txxgT-66" value="LPA manager" style="rounded=0;whiteSpace=wrap;html=1;" parent="_MSfownOL7amd91txxgT-1" vertex="1">
          <mxGeometry x="920" y="620" width="75" height="40" as="geometry" />
        </mxCell>
        <mxCell id="_MSfownOL7amd91txxgT-67" value="Audio manager" style="rounded=0;whiteSpace=wrap;html=1;" parent="_MSfownOL7amd91txxgT-1" vertex="1">
          <mxGeometry x="560" y="670" width="75" height="40" as="geometry" />
        </mxCell>
        <mxCell id="_MSfownOL7amd91txxgT-68" value="Health manager" style="rounded=0;whiteSpace=wrap;html=1;fillColor=#dae8fc;strokeColor=#6c8ebf;" parent="_MSfownOL7amd91txxgT-1" vertex="1">
          <mxGeometry x="655" y="670" width="75" height="40" as="geometry" />
        </mxCell>
        <mxCell id="_MSfownOL7amd91txxgT-69" value="Time&lt;br&gt;manager" style="rounded=0;whiteSpace=wrap;html=1;fillColor=#dae8fc;strokeColor=#6c8ebf;" parent="_MSfownOL7amd91txxgT-1" vertex="1">
          <mxGeometry x="750" y="670" width="75" height="40" as="geometry" />
        </mxCell>
        <mxCell id="_MSfownOL7amd91txxgT-70" value="Vehicle manager" style="rounded=0;whiteSpace=wrap;html=1;fillColor=#dae8fc;strokeColor=#6c8ebf;" parent="_MSfownOL7amd91txxgT-1" vertex="1">
          <mxGeometry x="830" y="670" width="75" height="40" as="geometry" />
        </mxCell>
        <mxCell id="_MSfownOL7amd91txxgT-71" value="Communication&lt;br&gt;manager" style="rounded=0;whiteSpace=wrap;html=1;fillColor=#dae8fc;strokeColor=#6c8ebf;" parent="_MSfownOL7amd91txxgT-1" vertex="1">
          <mxGeometry x="915" y="670" width="90" height="40" as="geometry" />
        </mxCell>
        <mxCell id="_MSfownOL7amd91txxgT-72" value="QMI" style="rounded=0;whiteSpace=wrap;html=1;fillColor=#dae8fc;strokeColor=#6c8ebf;" parent="_MSfownOL7amd91txxgT-1" vertex="1">
          <mxGeometry x="560" y="770" width="75" height="40" as="geometry" />
        </mxCell>
        <mxCell id="_MSfownOL7amd91txxgT-73" value="RILD" style="rounded=0;whiteSpace=wrap;html=1;fillColor=#dae8fc;strokeColor=#6c8ebf;" parent="_MSfownOL7amd91txxgT-1" vertex="1">
          <mxGeometry x="655" y="770" width="75" height="40" as="geometry" />
        </mxCell>
        <mxCell id="_MSfownOL7amd91txxgT-74" value="NetMgr" style="rounded=0;whiteSpace=wrap;html=1;fillColor=#dae8fc;strokeColor=#6c8ebf;" parent="_MSfownOL7amd91txxgT-1" vertex="1">
          <mxGeometry x="750" y="770" width="75" height="40" as="geometry" />
        </mxCell>
        <mxCell id="_MSfownOL7amd91txxgT-75" value="SystemD" style="rounded=0;whiteSpace=wrap;html=1;fillColor=#dae8fc;strokeColor=#6c8ebf;" parent="_MSfownOL7amd91txxgT-1" vertex="1">
          <mxGeometry x="830" y="770" width="75" height="40" as="geometry" />
        </mxCell>
        <mxCell id="_MSfownOL7amd91txxgT-76" value="Thread monitor" style="rounded=0;whiteSpace=wrap;html=1;fillColor=#dae8fc;strokeColor=#6c8ebf;" parent="_MSfownOL7amd91txxgT-1" vertex="1">
          <mxGeometry x="560" y="820" width="75" height="40" as="geometry" />
        </mxCell>
        <mxCell id="_MSfownOL7amd91txxgT-77" value="Resource&lt;br&gt;monitor" style="rounded=0;whiteSpace=wrap;html=1;fillColor=#dae8fc;strokeColor=#6c8ebf;" parent="_MSfownOL7amd91txxgT-1" vertex="1">
          <mxGeometry x="655" y="820" width="75" height="40" as="geometry" />
        </mxCell>
        <mxCell id="_MSfownOL7amd91txxgT-78" value="System property" style="rounded=0;whiteSpace=wrap;html=1;fillColor=#dae8fc;strokeColor=#6c8ebf;" parent="_MSfownOL7amd91txxgT-1" vertex="1">
          <mxGeometry x="750" y="820" width="75" height="40" as="geometry" />
        </mxCell>
        <mxCell id="_MSfownOL7amd91txxgT-79" value="tigridD" style="rounded=0;whiteSpace=wrap;html=1;fillColor=#dae8fc;strokeColor=#6c8ebf;" parent="_MSfownOL7amd91txxgT-1" vertex="1">
          <mxGeometry x="830" y="820" width="75" height="40" as="geometry" />
        </mxCell>
        <mxCell id="_MSfownOL7amd91txxgT-80" value="ADC" style="rounded=0;whiteSpace=wrap;html=1;fillColor=#f5f5f5;strokeColor=#666666;fontColor=#333333;" parent="_MSfownOL7amd91txxgT-1" vertex="1">
          <mxGeometry x="700" y="940" width="60" height="30" as="geometry" />
        </mxCell>
        <mxCell id="_MSfownOL7amd91txxgT-81" value="PWM" style="rounded=0;whiteSpace=wrap;html=1;fillColor=#f5f5f5;strokeColor=#666666;fontColor=#333333;" parent="_MSfownOL7amd91txxgT-1" vertex="1">
          <mxGeometry x="765" y="940" width="60" height="30" as="geometry" />
        </mxCell>
        <mxCell id="_MSfownOL7amd91txxgT-82" value="GPIO" style="rounded=0;whiteSpace=wrap;html=1;fillColor=#f5f5f5;strokeColor=#666666;fontColor=#333333;" parent="_MSfownOL7amd91txxgT-1" vertex="1">
          <mxGeometry x="830" y="940" width="60" height="30" as="geometry" />
        </mxCell>
        <mxCell id="_MSfownOL7amd91txxgT-83" value="I2S" style="rounded=0;whiteSpace=wrap;html=1;fillColor=#f5f5f5;strokeColor=#666666;fontColor=#333333;" parent="_MSfownOL7amd91txxgT-1" vertex="1">
          <mxGeometry x="970" y="940" width="60" height="30" as="geometry" />
        </mxCell>
        <mxCell id="_MSfownOL7amd91txxgT-84" value="USB" style="rounded=0;whiteSpace=wrap;html=1;fillColor=#f5f5f5;strokeColor=#666666;fontColor=#333333;" parent="_MSfownOL7amd91txxgT-1" vertex="1">
          <mxGeometry x="900" y="940" width="60" height="30" as="geometry" />
        </mxCell>
        <mxCell id="_MSfownOL7amd91txxgT-85" value="I2C" style="rounded=0;whiteSpace=wrap;html=1;fillColor=#f5f5f5;strokeColor=#666666;fontColor=#333333;" parent="_MSfownOL7amd91txxgT-1" vertex="1">
          <mxGeometry x="705" y="980" width="60" height="30" as="geometry" />
        </mxCell>
        <mxCell id="_MSfownOL7amd91txxgT-86" value="ethernet" style="rounded=0;whiteSpace=wrap;html=1;fillColor=#f5f5f5;strokeColor=#666666;fontColor=#333333;" parent="_MSfownOL7amd91txxgT-1" vertex="1">
          <mxGeometry x="770" y="980" width="60" height="30" as="geometry" />
        </mxCell>
        <mxCell id="_MSfownOL7amd91txxgT-87" value="Binder" style="rounded=0;whiteSpace=wrap;html=1;fillColor=#f5f5f5;strokeColor=#666666;fontColor=#333333;" parent="_MSfownOL7amd91txxgT-1" vertex="1">
          <mxGeometry x="837.5" y="980" width="60" height="30" as="geometry" />
        </mxCell>
        <mxCell id="_MSfownOL7amd91txxgT-88" value="" style="rounded=0;whiteSpace=wrap;html=1;" parent="_MSfownOL7amd91txxgT-1" vertex="1">
          <mxGeometry x="870" y="1050" width="210" height="130" as="geometry" />
        </mxCell>
        <mxCell id="_MSfownOL7amd91txxgT-89" value="Key" style="text;html=1;strokeColor=none;fillColor=none;align=center;verticalAlign=middle;whiteSpace=wrap;rounded=0;" parent="_MSfownOL7amd91txxgT-1" vertex="1">
          <mxGeometry x="880" y="1050" width="40" height="20" as="geometry" />
        </mxCell>
        <mxCell id="_MSfownOL7amd91txxgT-90" value="" style="rounded=0;whiteSpace=wrap;html=1;fillColor=#f5f5f5;strokeColor=#666666;fontColor=#333333;" parent="_MSfownOL7amd91txxgT-1" vertex="1">
          <mxGeometry x="880" y="1070" width="50" height="20" as="geometry" />
        </mxCell>
        <mxCell id="_MSfownOL7amd91txxgT-91" value="3rd party component" style="text;html=1;strokeColor=none;fillColor=none;align=center;verticalAlign=middle;whiteSpace=wrap;rounded=0;" parent="_MSfownOL7amd91txxgT-1" vertex="1">
          <mxGeometry x="955" y="1075" width="85" height="20" as="geometry" />
        </mxCell>
        <mxCell id="_MSfownOL7amd91txxgT-92" value="" style="rounded=0;whiteSpace=wrap;html=1;fillColor=#60a917;strokeColor=#2D7600;fontColor=#ffffff;" parent="_MSfownOL7amd91txxgT-1" vertex="1">
          <mxGeometry x="880" y="1110" width="50" height="20" as="geometry" />
        </mxCell>
        <mxCell id="_MSfownOL7amd91txxgT-93" value="new component" style="text;html=1;strokeColor=none;fillColor=none;align=center;verticalAlign=middle;whiteSpace=wrap;rounded=0;" parent="_MSfownOL7amd91txxgT-1" vertex="1">
          <mxGeometry x="955" y="1115" width="95" height="20" as="geometry" />
        </mxCell>
        <mxCell id="_MSfownOL7amd91txxgT-94" value="" style="rounded=0;whiteSpace=wrap;html=1;fillColor=#dae8fc;strokeColor=#6c8ebf;" parent="_MSfownOL7amd91txxgT-1" vertex="1">
          <mxGeometry x="880" y="1150" width="50" height="20" as="geometry" />
        </mxCell>
        <mxCell id="_MSfownOL7amd91txxgT-95" value="Reuse and modified component" style="text;html=1;strokeColor=none;fillColor=none;align=center;verticalAlign=middle;whiteSpace=wrap;rounded=0;" parent="_MSfownOL7amd91txxgT-1" vertex="1">
          <mxGeometry x="955" y="1155" width="115" height="20" as="geometry" />
        </mxCell>
        <mxCell id="_MSfownOL7amd91txxgT-96" value="modem logger" style="rounded=0;whiteSpace=wrap;html=1;fillColor=#dae8fc;strokeColor=#6c8ebf;" parent="_MSfownOL7amd91txxgT-1" vertex="1">
          <mxGeometry x="565" y="410" width="75" height="40" as="geometry" />
        </mxCell>
        <mxCell id="_MSfownOL7amd91txxgT-97" value="IPsec Manager" style="rounded=0;whiteSpace=wrap;html=1;fillColor=#dae8fc;strokeColor=#6c8ebf;" parent="_MSfownOL7amd91txxgT-1" vertex="1">
          <mxGeometry x="660" y="410" width="75" height="40" as="geometry" />
        </mxCell>
        <mxCell id="_MSfownOL7amd91txxgT-98" value="Alarm manager" style="rounded=0;whiteSpace=wrap;html=1;fillColor=#dae8fc;strokeColor=#6c8ebf;" parent="_MSfownOL7amd91txxgT-1" vertex="1">
          <mxGeometry x="750" y="410" width="75" height="40" as="geometry" />
        </mxCell>
        <mxCell id="_MSfownOL7amd91txxgT-99" value="SysInfor Manager" style="rounded=0;whiteSpace=wrap;html=1;fillColor=#dae8fc;strokeColor=#6c8ebf;" parent="_MSfownOL7amd91txxgT-1" vertex="1">
          <mxGeometry x="830" y="410" width="75" height="40" as="geometry" />
        </mxCell>
        <mxCell id="_MSfownOL7amd91txxgT-100" value="App manager" style="rounded=0;whiteSpace=wrap;html=1;fillColor=#dae8fc;strokeColor=#6c8ebf;" parent="_MSfownOL7amd91txxgT-1" vertex="1">
          <mxGeometry x="920" y="410" width="75" height="40" as="geometry" />
        </mxCell>
        <mxCell id="_MSfownOL7amd91txxgT-101" value="Telephony manager" style="rounded=0;whiteSpace=wrap;html=1;fillColor=#dae8fc;strokeColor=#6c8ebf;" parent="_MSfownOL7amd91txxgT-1" vertex="1">
          <mxGeometry x="750" y="455" width="75" height="40" as="geometry" />
        </mxCell>
        <mxCell id="_MSfownOL7amd91txxgT-102" value="Security manager" style="rounded=0;whiteSpace=wrap;html=1;fillColor=#dae8fc;strokeColor=#6c8ebf;" parent="_MSfownOL7amd91txxgT-1" vertex="1">
          <mxGeometry x="830" y="455" width="75" height="40" as="geometry" />
        </mxCell>
        <mxCell id="_MSfownOL7amd91txxgT-103" value="eCall manager" style="rounded=0;whiteSpace=wrap;html=1;fillColor=#dae8fc;strokeColor=#6c8ebf;" parent="_MSfownOL7amd91txxgT-1" vertex="1">
          <mxGeometry x="920" y="460" width="75" height="40" as="geometry" />
        </mxCell>
        <mxCell id="_MSfownOL7amd91txxgT-104" value="Power manager" style="rounded=0;whiteSpace=wrap;html=1;fillColor=#dae8fc;strokeColor=#6c8ebf;" parent="_MSfownOL7amd91txxgT-1" vertex="1">
          <mxGeometry x="562.5" y="510" width="75" height="40" as="geometry" />
        </mxCell>
        <mxCell id="_MSfownOL7amd91txxgT-105" value="HMI manager" style="rounded=0;whiteSpace=wrap;html=1;fillColor=#dae8fc;strokeColor=#6c8ebf;" parent="_MSfownOL7amd91txxgT-1" vertex="1">
          <mxGeometry x="660" y="510" width="75" height="40" as="geometry" />
        </mxCell>
        <mxCell id="_MSfownOL7amd91txxgT-106" value="Route manager" style="rounded=0;whiteSpace=wrap;html=1;fillColor=#dae8fc;strokeColor=#6c8ebf;" parent="_MSfownOL7amd91txxgT-1" vertex="1">
          <mxGeometry x="750" y="510" width="75" height="40" as="geometry" />
        </mxCell>
        <mxCell id="_MSfownOL7amd91txxgT-107" value="someIP consumer" style="rounded=0;whiteSpace=wrap;html=1;fillColor=#dae8fc;strokeColor=#6c8ebf;" parent="_MSfownOL7amd91txxgT-1" vertex="1">
          <mxGeometry x="830" y="510" width="75" height="40" as="geometry" />
        </mxCell>
        <mxCell id="_MSfownOL7amd91txxgT-108" value="someIP provider" style="rounded=0;whiteSpace=wrap;html=1;fillColor=#dae8fc;strokeColor=#6c8ebf;" parent="_MSfownOL7amd91txxgT-1" vertex="1">
          <mxGeometry x="560" y="560" width="75" height="40" as="geometry" />
        </mxCell>
        <mxCell id="_MSfownOL7amd91txxgT-109" value="Antenna manager" style="rounded=0;whiteSpace=wrap;html=1;fillColor=#dae8fc;strokeColor=#6c8ebf;" parent="_MSfownOL7amd91txxgT-1" vertex="1">
          <mxGeometry x="655" y="560" width="75" height="40" as="geometry" />
        </mxCell>
        <mxCell id="_MSfownOL7amd91txxgT-110" value="Config manager" style="rounded=0;whiteSpace=wrap;html=1;fillColor=#dae8fc;strokeColor=#6c8ebf;" parent="_MSfownOL7amd91txxgT-1" vertex="1">
          <mxGeometry x="750" y="560" width="75" height="40" as="geometry" />
        </mxCell>
        <mxCell id="_MSfownOL7amd91txxgT-111" value="Diag manager" style="rounded=0;whiteSpace=wrap;html=1;fillColor=#dae8fc;strokeColor=#6c8ebf;" parent="_MSfownOL7amd91txxgT-1" vertex="1">
          <mxGeometry x="830" y="560" width="75" height="40" as="geometry" />
        </mxCell>
        <mxCell id="_MSfownOL7amd91txxgT-112" value="Location manager" style="rounded=0;whiteSpace=wrap;html=1;fillColor=#dae8fc;strokeColor=#6c8ebf;" parent="_MSfownOL7amd91txxgT-1" vertex="1">
          <mxGeometry x="560" y="620" width="75" height="40" as="geometry" />
        </mxCell>
        <mxCell id="_MSfownOL7amd91txxgT-113" value="Remote IF manager" style="rounded=0;whiteSpace=wrap;html=1;fillColor=#dae8fc;strokeColor=#6c8ebf;" parent="_MSfownOL7amd91txxgT-1" vertex="1">
          <mxGeometry x="655" y="620" width="75" height="40" as="geometry" />
        </mxCell>
        <mxCell id="_MSfownOL7amd91txxgT-114" value="VoIP manager" style="rounded=0;whiteSpace=wrap;html=1;fillColor=#dae8fc;strokeColor=#6c8ebf;" parent="_MSfownOL7amd91txxgT-1" vertex="1">
          <mxGeometry x="750" y="620" width="75" height="40" as="geometry" />
        </mxCell>
        <mxCell id="_MSfownOL7amd91txxgT-115" value="LPA manager" style="rounded=0;whiteSpace=wrap;html=1;fillColor=#dae8fc;strokeColor=#6c8ebf;" parent="_MSfownOL7amd91txxgT-1" vertex="1">
          <mxGeometry x="920" y="620" width="75" height="40" as="geometry" />
        </mxCell>
        <mxCell id="_MSfownOL7amd91txxgT-116" value="Ethernet manager" style="rounded=0;whiteSpace=wrap;html=1;fillColor=#dae8fc;strokeColor=#6c8ebf;" parent="_MSfownOL7amd91txxgT-1" vertex="1">
          <mxGeometry x="920" y="560" width="75" height="40" as="geometry" />
        </mxCell>
        <mxCell id="_MSfownOL7amd91txxgT-117" value="Audio manager" style="rounded=0;whiteSpace=wrap;html=1;fillColor=#dae8fc;strokeColor=#6c8ebf;" parent="_MSfownOL7amd91txxgT-1" vertex="1">
          <mxGeometry x="560" y="670" width="75" height="40" as="geometry" />
        </mxCell>
        <mxCell id="_MSfownOL7amd91txxgT-118" value="NAD" style="text;html=1;strokeColor=none;fillColor=none;align=center;verticalAlign=middle;whiteSpace=wrap;rounded=0;" parent="_MSfownOL7amd91txxgT-1" vertex="1">
          <mxGeometry x="120" y="130" width="40" height="20" as="geometry" />
        </mxCell>
      </root>
    </mxGraphModel>
  </diagram>
  <diagram id="Hyy6mRA4JkzIu4gsgIuo" name="Nadmgr_nadproxy">
    <mxGraphModel dx="3122" dy="822" grid="1" gridSize="10" guides="1" tooltips="1" connect="1" arrows="1" fold="1" page="1" pageScale="1" pageWidth="850" pageHeight="1100" math="0" shadow="0">
      <root>
        <mxCell id="y3E0y7-ujIsQNwnxvG9X-0" />
        <mxCell id="y3E0y7-ujIsQNwnxvG9X-1" parent="y3E0y7-ujIsQNwnxvG9X-0" />
        <mxCell id="SXxiq-qbREzF-empz_PB-0" value="" style="rounded=0;whiteSpace=wrap;html=1;fillColor=none;" parent="y3E0y7-ujIsQNwnxvG9X-1" vertex="1">
          <mxGeometry x="-850" y="1000" width="1240" height="710" as="geometry" />
        </mxCell>
        <mxCell id="SXxiq-qbREzF-empz_PB-1" value="ICON" style="text;html=1;strokeColor=none;fillColor=none;align=center;verticalAlign=middle;whiteSpace=wrap;rounded=0;" parent="y3E0y7-ujIsQNwnxvG9X-1" vertex="1">
          <mxGeometry x="-850" y="1000" width="40" height="20" as="geometry" />
        </mxCell>
        <mxCell id="SXxiq-qbREzF-empz_PB-2" value="" style="rounded=0;whiteSpace=wrap;html=1;fillColor=none;" parent="y3E0y7-ujIsQNwnxvG9X-1" vertex="1">
          <mxGeometry x="-250" y="1065" width="630" height="625" as="geometry" />
        </mxCell>
        <mxCell id="SXxiq-qbREzF-empz_PB-6" value="NAD SoC" style="text;html=1;strokeColor=none;fillColor=none;align=center;verticalAlign=middle;whiteSpace=wrap;rounded=0;" parent="y3E0y7-ujIsQNwnxvG9X-1" vertex="1">
          <mxGeometry x="-240" y="1065" width="70" height="20" as="geometry" />
        </mxCell>
        <mxCell id="7mBmOgxy3KULkcCHV_U--62" style="edgeStyle=orthogonalEdgeStyle;rounded=0;orthogonalLoop=1;jettySize=auto;html=1;exitX=1;exitY=0.5;exitDx=0;exitDy=0;dashed=1;strokeWidth=2;" edge="1" parent="y3E0y7-ujIsQNwnxvG9X-1" source="SXxiq-qbREzF-empz_PB-24" target="7mBmOgxy3KULkcCHV_U--60">
          <mxGeometry relative="1" as="geometry" />
        </mxCell>
        <mxCell id="SXxiq-qbREzF-empz_PB-24" value="Diagnostic Manager" style="rounded=0;whiteSpace=wrap;html=1;strokeColor=#2D7600;fillColor=#60a917;fontColor=#ffffff;" parent="y3E0y7-ujIsQNwnxvG9X-1" vertex="1">
          <mxGeometry x="80" y="1140" width="120" height="70" as="geometry" />
        </mxCell>
        <mxCell id="7mBmOgxy3KULkcCHV_U--80" style="edgeStyle=orthogonalEdgeStyle;rounded=0;orthogonalLoop=1;jettySize=auto;html=1;exitX=0;exitY=0.25;exitDx=0;exitDy=0;entryX=0.994;entryY=0.846;entryDx=0;entryDy=0;entryPerimeter=0;dashed=1;strokeWidth=2;" edge="1" parent="y3E0y7-ujIsQNwnxvG9X-1" source="SXxiq-qbREzF-empz_PB-26" target="7mBmOgxy3KULkcCHV_U--34">
          <mxGeometry relative="1" as="geometry" />
        </mxCell>
        <mxCell id="SXxiq-qbREzF-empz_PB-26" value="eCall Manager" style="rounded=0;whiteSpace=wrap;html=1;strokeColor=#2D7600;fillColor=#60a917;fontColor=#ffffff;" parent="y3E0y7-ujIsQNwnxvG9X-1" vertex="1">
          <mxGeometry x="83" y="1555" width="120" height="75" as="geometry" />
        </mxCell>
        <mxCell id="SXxiq-qbREzF-empz_PB-27" value="LPA&lt;br&gt;(Local Profile Assistant)" style="rounded=0;whiteSpace=wrap;html=1;strokeColor=#2D7600;fillColor=#60a917;fontColor=#ffffff;" parent="y3E0y7-ujIsQNwnxvG9X-1" vertex="1">
          <mxGeometry x="83" y="1450" width="120" height="60" as="geometry" />
        </mxCell>
        <mxCell id="7mBmOgxy3KULkcCHV_U--59" style="edgeStyle=orthogonalEdgeStyle;rounded=0;orthogonalLoop=1;jettySize=auto;html=1;exitX=1;exitY=0.25;exitDx=0;exitDy=0;entryX=0;entryY=0.5;entryDx=0;entryDy=0;dashed=1;strokeWidth=2;" edge="1" parent="y3E0y7-ujIsQNwnxvG9X-1" source="SXxiq-qbREzF-empz_PB-28" target="7mBmOgxy3KULkcCHV_U--57">
          <mxGeometry relative="1" as="geometry" />
        </mxCell>
        <mxCell id="SXxiq-qbREzF-empz_PB-28" value="Configuration Manager" style="rounded=0;whiteSpace=wrap;html=1;strokeColor=#2D7600;fillColor=#60a917;fontColor=#ffffff;" parent="y3E0y7-ujIsQNwnxvG9X-1" vertex="1">
          <mxGeometry x="80" y="1255" width="120" height="120" as="geometry" />
        </mxCell>
        <mxCell id="SXxiq-qbREzF-empz_PB-67" value="" style="rounded=0;whiteSpace=wrap;html=1;" parent="y3E0y7-ujIsQNwnxvG9X-1" vertex="1">
          <mxGeometry x="140" y="1750" width="250" height="240" as="geometry" />
        </mxCell>
        <mxCell id="SXxiq-qbREzF-empz_PB-68" value="Legend" style="text;html=1;strokeColor=none;fillColor=none;align=center;verticalAlign=middle;whiteSpace=wrap;rounded=0;" parent="y3E0y7-ujIsQNwnxvG9X-1" vertex="1">
          <mxGeometry x="150" y="1750" width="40" height="20" as="geometry" />
        </mxCell>
        <mxCell id="SXxiq-qbREzF-empz_PB-69" value="" style="rounded=0;whiteSpace=wrap;html=1;fillColor=#f9f7ed;strokeColor=#36393d;" parent="y3E0y7-ujIsQNwnxvG9X-1" vertex="1">
          <mxGeometry x="150" y="1780" width="70" height="30" as="geometry" />
        </mxCell>
        <mxCell id="SXxiq-qbREzF-empz_PB-70" value="" style="rounded=0;whiteSpace=wrap;html=1;fillColor=#60a917;strokeColor=#2D7600;fontColor=#ffffff;" parent="y3E0y7-ujIsQNwnxvG9X-1" vertex="1">
          <mxGeometry x="150" y="1870" width="70" height="30" as="geometry" />
        </mxCell>
        <mxCell id="SXxiq-qbREzF-empz_PB-71" value="NAD Manager/ NAD Relay" style="text;html=1;strokeColor=none;fillColor=none;align=center;verticalAlign=middle;whiteSpace=wrap;rounded=0;" parent="y3E0y7-ujIsQNwnxvG9X-1" vertex="1">
          <mxGeometry x="230" y="1780" width="160" height="20" as="geometry" />
        </mxCell>
        <mxCell id="SXxiq-qbREzF-empz_PB-73" value="" style="rounded=0;whiteSpace=wrap;html=1;dashed=1;strokeColor=#FF0000;fillColor=none;" parent="y3E0y7-ujIsQNwnxvG9X-1" vertex="1">
          <mxGeometry x="150" y="1830" width="70" height="20" as="geometry" />
        </mxCell>
        <mxCell id="SXxiq-qbREzF-empz_PB-74" value="System Boundary" style="text;html=1;strokeColor=none;fillColor=none;align=center;verticalAlign=middle;whiteSpace=wrap;rounded=0;" parent="y3E0y7-ujIsQNwnxvG9X-1" vertex="1">
          <mxGeometry x="210" y="1830" width="160" height="20" as="geometry" />
        </mxCell>
        <mxCell id="SXxiq-qbREzF-empz_PB-75" value="External components" style="text;html=1;strokeColor=none;fillColor=none;align=center;verticalAlign=middle;whiteSpace=wrap;rounded=0;" parent="y3E0y7-ujIsQNwnxvG9X-1" vertex="1">
          <mxGeometry x="210" y="1875" width="160" height="20" as="geometry" />
        </mxCell>
        <mxCell id="SXxiq-qbREzF-empz_PB-76" style="edgeStyle=orthogonalEdgeStyle;rounded=0;orthogonalLoop=1;jettySize=auto;html=1;dashed=1;strokeWidth=2;" parent="y3E0y7-ujIsQNwnxvG9X-1" edge="1">
          <mxGeometry relative="1" as="geometry">
            <mxPoint x="153.5" y="1930" as="sourcePoint" />
            <mxPoint x="216.5" y="1930" as="targetPoint" />
          </mxGeometry>
        </mxCell>
        <mxCell id="SXxiq-qbREzF-empz_PB-77" value="Data flow" style="text;html=1;strokeColor=none;fillColor=none;align=center;verticalAlign=middle;whiteSpace=wrap;rounded=0;" parent="y3E0y7-ujIsQNwnxvG9X-1" vertex="1">
          <mxGeometry x="180" y="1920" width="160" height="20" as="geometry" />
        </mxCell>
        <mxCell id="7mBmOgxy3KULkcCHV_U--0" value="" style="rounded=0;whiteSpace=wrap;html=1;fillColor=none;" vertex="1" parent="y3E0y7-ujIsQNwnxvG9X-1">
          <mxGeometry x="-830" y="1060" width="520" height="630" as="geometry" />
        </mxCell>
        <mxCell id="7mBmOgxy3KULkcCHV_U--1" value="BAM Soc" style="text;html=1;strokeColor=none;fillColor=none;align=center;verticalAlign=middle;whiteSpace=wrap;rounded=0;" vertex="1" parent="y3E0y7-ujIsQNwnxvG9X-1">
          <mxGeometry x="-820" y="1060" width="70" height="20" as="geometry" />
        </mxCell>
        <mxCell id="7mBmOgxy3KULkcCHV_U--53" style="edgeStyle=orthogonalEdgeStyle;rounded=0;orthogonalLoop=1;jettySize=auto;html=1;exitX=1;exitY=0.339;exitDx=0;exitDy=0;entryX=-0.006;entryY=0.339;entryDx=0;entryDy=0;entryPerimeter=0;dashed=1;strokeWidth=2;exitPerimeter=0;" edge="1" parent="y3E0y7-ujIsQNwnxvG9X-1" source="7mBmOgxy3KULkcCHV_U--4" target="7mBmOgxy3KULkcCHV_U--34">
          <mxGeometry relative="1" as="geometry" />
        </mxCell>
        <mxCell id="7mBmOgxy3KULkcCHV_U--66" style="edgeStyle=orthogonalEdgeStyle;rounded=0;orthogonalLoop=1;jettySize=auto;html=1;exitX=1.012;exitY=0.482;exitDx=0;exitDy=0;entryX=0;entryY=0.48;entryDx=0;entryDy=0;entryPerimeter=0;dashed=1;strokeWidth=2;exitPerimeter=0;" edge="1" parent="y3E0y7-ujIsQNwnxvG9X-1" source="7mBmOgxy3KULkcCHV_U--4" target="7mBmOgxy3KULkcCHV_U--34">
          <mxGeometry relative="1" as="geometry" />
        </mxCell>
        <mxCell id="7mBmOgxy3KULkcCHV_U--74" style="edgeStyle=orthogonalEdgeStyle;rounded=0;orthogonalLoop=1;jettySize=auto;html=1;exitX=1.018;exitY=0.684;exitDx=0;exitDy=0;entryX=-0.024;entryY=0.682;entryDx=0;entryDy=0;dashed=1;strokeWidth=2;exitPerimeter=0;entryPerimeter=0;" edge="1" parent="y3E0y7-ujIsQNwnxvG9X-1" source="7mBmOgxy3KULkcCHV_U--4" target="7mBmOgxy3KULkcCHV_U--34">
          <mxGeometry relative="1" as="geometry" />
        </mxCell>
        <mxCell id="7mBmOgxy3KULkcCHV_U--82" style="edgeStyle=orthogonalEdgeStyle;rounded=0;orthogonalLoop=1;jettySize=auto;html=1;exitX=0.006;exitY=0.834;exitDx=0;exitDy=0;entryX=1;entryY=0.706;entryDx=0;entryDy=0;entryPerimeter=0;dashed=1;strokeWidth=2;exitPerimeter=0;" edge="1" parent="y3E0y7-ujIsQNwnxvG9X-1" source="7mBmOgxy3KULkcCHV_U--4" target="7mBmOgxy3KULkcCHV_U--31">
          <mxGeometry relative="1" as="geometry" />
        </mxCell>
        <mxCell id="7mBmOgxy3KULkcCHV_U--4" value="" style="rounded=0;whiteSpace=wrap;html=1;strokeColor=#36393d;fillColor=#f9f7ed;" vertex="1" parent="y3E0y7-ujIsQNwnxvG9X-1">
          <mxGeometry x="-520" y="1100" width="165" height="560" as="geometry" />
        </mxCell>
        <mxCell id="7mBmOgxy3KULkcCHV_U--5" value="NAD Manager&lt;br&gt;(Processor)" style="text;html=1;strokeColor=none;fillColor=none;align=center;verticalAlign=middle;whiteSpace=wrap;rounded=0;" vertex="1" parent="y3E0y7-ujIsQNwnxvG9X-1">
          <mxGeometry x="-477.5" y="1365" width="80" height="20" as="geometry" />
        </mxCell>
        <mxCell id="7mBmOgxy3KULkcCHV_U--78" style="edgeStyle=orthogonalEdgeStyle;rounded=0;orthogonalLoop=1;jettySize=auto;html=1;exitX=0.989;exitY=0.22;exitDx=0;exitDy=0;entryX=0;entryY=0.25;entryDx=0;entryDy=0;dashed=1;strokeWidth=2;exitPerimeter=0;" edge="1" parent="y3E0y7-ujIsQNwnxvG9X-1" source="7mBmOgxy3KULkcCHV_U--29" target="7mBmOgxy3KULkcCHV_U--31">
          <mxGeometry relative="1" as="geometry" />
        </mxCell>
        <mxCell id="7mBmOgxy3KULkcCHV_U--84" style="edgeStyle=orthogonalEdgeStyle;rounded=0;orthogonalLoop=1;jettySize=auto;html=1;exitX=0.989;exitY=0.805;exitDx=0;exitDy=0;entryX=-0.017;entryY=0.889;entryDx=0;entryDy=0;entryPerimeter=0;dashed=1;strokeWidth=2;exitPerimeter=0;" edge="1" parent="y3E0y7-ujIsQNwnxvG9X-1" source="7mBmOgxy3KULkcCHV_U--29" target="7mBmOgxy3KULkcCHV_U--31">
          <mxGeometry relative="1" as="geometry" />
        </mxCell>
        <mxCell id="7mBmOgxy3KULkcCHV_U--29" value="Backend" style="rounded=0;whiteSpace=wrap;html=1;strokeColor=#d79b00;fillColor=#ffe6cc;" vertex="1" parent="y3E0y7-ujIsQNwnxvG9X-1">
          <mxGeometry x="-970" y="1440" width="90" height="200" as="geometry" />
        </mxCell>
        <mxCell id="7mBmOgxy3KULkcCHV_U--30" value="LSMF&lt;br&gt;(Lightweight SysteM Function)" style="rounded=0;whiteSpace=wrap;html=1;strokeColor=#2D7600;fillColor=#60a917;fontColor=#ffffff;" vertex="1" parent="y3E0y7-ujIsQNwnxvG9X-1">
          <mxGeometry x="-767" y="1150" width="120" height="60" as="geometry" />
        </mxCell>
        <mxCell id="7mBmOgxy3KULkcCHV_U--72" style="edgeStyle=orthogonalEdgeStyle;rounded=0;orthogonalLoop=1;jettySize=auto;html=1;exitX=1;exitY=0.25;exitDx=0;exitDy=0;entryX=0;entryY=0.688;entryDx=0;entryDy=0;dashed=1;strokeWidth=2;entryPerimeter=0;" edge="1" parent="y3E0y7-ujIsQNwnxvG9X-1" source="7mBmOgxy3KULkcCHV_U--31" target="7mBmOgxy3KULkcCHV_U--4">
          <mxGeometry relative="1" as="geometry" />
        </mxCell>
        <mxCell id="7mBmOgxy3KULkcCHV_U--83" style="edgeStyle=orthogonalEdgeStyle;rounded=0;orthogonalLoop=1;jettySize=auto;html=1;exitX=0.008;exitY=0.678;exitDx=0;exitDy=0;dashed=1;strokeWidth=2;exitPerimeter=0;" edge="1" parent="y3E0y7-ujIsQNwnxvG9X-1" source="7mBmOgxy3KULkcCHV_U--31">
          <mxGeometry relative="1" as="geometry">
            <mxPoint x="-877" y="1563" as="targetPoint" />
          </mxGeometry>
        </mxCell>
        <mxCell id="7mBmOgxy3KULkcCHV_U--85" style="edgeStyle=orthogonalEdgeStyle;rounded=0;orthogonalLoop=1;jettySize=auto;html=1;exitX=1.025;exitY=0.917;exitDx=0;exitDy=0;entryX=-0.006;entryY=0.9;entryDx=0;entryDy=0;entryPerimeter=0;dashed=1;strokeWidth=2;exitPerimeter=0;" edge="1" parent="y3E0y7-ujIsQNwnxvG9X-1" source="7mBmOgxy3KULkcCHV_U--31" target="7mBmOgxy3KULkcCHV_U--4">
          <mxGeometry relative="1" as="geometry" />
        </mxCell>
        <mxCell id="7mBmOgxy3KULkcCHV_U--31" value="MCP gateway" style="rounded=0;whiteSpace=wrap;html=1;strokeColor=#2D7600;fillColor=#60a917;fontColor=#ffffff;" vertex="1" parent="y3E0y7-ujIsQNwnxvG9X-1">
          <mxGeometry x="-770" y="1440" width="120" height="180" as="geometry" />
        </mxCell>
        <mxCell id="7mBmOgxy3KULkcCHV_U--51" style="edgeStyle=orthogonalEdgeStyle;rounded=0;orthogonalLoop=1;jettySize=auto;html=1;exitX=1;exitY=0.5;exitDx=0;exitDy=0;entryX=0;entryY=0.341;entryDx=0;entryDy=0;entryPerimeter=0;dashed=1;strokeWidth=2;" edge="1" parent="y3E0y7-ujIsQNwnxvG9X-1" source="7mBmOgxy3KULkcCHV_U--32" target="7mBmOgxy3KULkcCHV_U--4">
          <mxGeometry relative="1" as="geometry" />
        </mxCell>
        <mxCell id="7mBmOgxy3KULkcCHV_U--32" value="Provisioning service" style="rounded=0;whiteSpace=wrap;html=1;strokeColor=#2D7600;fillColor=#60a917;fontColor=#ffffff;" vertex="1" parent="y3E0y7-ujIsQNwnxvG9X-1">
          <mxGeometry x="-770" y="1260" width="120" height="60" as="geometry" />
        </mxCell>
        <mxCell id="7mBmOgxy3KULkcCHV_U--54" style="edgeStyle=orthogonalEdgeStyle;rounded=0;orthogonalLoop=1;jettySize=auto;html=1;exitX=1.006;exitY=0.33;exitDx=0;exitDy=0;entryX=0;entryY=0.25;entryDx=0;entryDy=0;dashed=1;strokeWidth=2;exitPerimeter=0;" edge="1" parent="y3E0y7-ujIsQNwnxvG9X-1" source="7mBmOgxy3KULkcCHV_U--34" target="SXxiq-qbREzF-empz_PB-28">
          <mxGeometry relative="1" as="geometry" />
        </mxCell>
        <mxCell id="7mBmOgxy3KULkcCHV_U--67" style="edgeStyle=orthogonalEdgeStyle;rounded=0;orthogonalLoop=1;jettySize=auto;html=1;exitX=1.018;exitY=0.464;exitDx=0;exitDy=0;entryX=0.008;entryY=0.875;entryDx=0;entryDy=0;entryPerimeter=0;dashed=1;strokeWidth=2;exitPerimeter=0;" edge="1" parent="y3E0y7-ujIsQNwnxvG9X-1" source="7mBmOgxy3KULkcCHV_U--34" target="SXxiq-qbREzF-empz_PB-28">
          <mxGeometry relative="1" as="geometry" />
        </mxCell>
        <mxCell id="7mBmOgxy3KULkcCHV_U--76" style="edgeStyle=orthogonalEdgeStyle;rounded=0;orthogonalLoop=1;jettySize=auto;html=1;exitX=1;exitY=0.75;exitDx=0;exitDy=0;dashed=1;strokeWidth=2;entryX=-0.008;entryY=0.367;entryDx=0;entryDy=0;entryPerimeter=0;" edge="1" parent="y3E0y7-ujIsQNwnxvG9X-1" source="7mBmOgxy3KULkcCHV_U--34" target="SXxiq-qbREzF-empz_PB-27">
          <mxGeometry relative="1" as="geometry">
            <mxPoint x="70" y="1475" as="targetPoint" />
            <Array as="points">
              <mxPoint x="-55" y="1472" />
            </Array>
          </mxGeometry>
        </mxCell>
        <mxCell id="7mBmOgxy3KULkcCHV_U--88" style="edgeStyle=orthogonalEdgeStyle;rounded=0;orthogonalLoop=1;jettySize=auto;html=1;entryX=0;entryY=0.75;entryDx=0;entryDy=0;dashed=1;strokeWidth=2;" edge="1" parent="y3E0y7-ujIsQNwnxvG9X-1" target="SXxiq-qbREzF-empz_PB-26">
          <mxGeometry relative="1" as="geometry">
            <mxPoint x="-52" y="1611" as="sourcePoint" />
          </mxGeometry>
        </mxCell>
        <mxCell id="7mBmOgxy3KULkcCHV_U--34" value="" style="rounded=0;whiteSpace=wrap;html=1;strokeColor=#36393d;fillColor=#f9f7ed;" vertex="1" parent="y3E0y7-ujIsQNwnxvG9X-1">
          <mxGeometry x="-220" y="1100" width="165" height="560" as="geometry" />
        </mxCell>
        <mxCell id="7mBmOgxy3KULkcCHV_U--36" value="NAD Relay&lt;br&gt;(Forwarder)" style="text;html=1;strokeColor=none;fillColor=none;align=center;verticalAlign=middle;whiteSpace=wrap;rounded=0;" vertex="1" parent="y3E0y7-ujIsQNwnxvG9X-1">
          <mxGeometry x="-177.5" y="1357.5" width="80" height="20" as="geometry" />
        </mxCell>
        <mxCell id="7mBmOgxy3KULkcCHV_U--37" style="edgeStyle=orthogonalEdgeStyle;rounded=0;orthogonalLoop=1;jettySize=auto;html=1;exitX=1;exitY=0.25;exitDx=0;exitDy=0;dashed=1;strokeWidth=2;entryX=0.006;entryY=0.116;entryDx=0;entryDy=0;entryPerimeter=0;" edge="1" parent="y3E0y7-ujIsQNwnxvG9X-1" source="7mBmOgxy3KULkcCHV_U--30" target="7mBmOgxy3KULkcCHV_U--4">
          <mxGeometry relative="1" as="geometry">
            <mxPoint x="-570" y="1179" as="targetPoint" />
            <mxPoint x="-647" y="1179" as="sourcePoint" />
          </mxGeometry>
        </mxCell>
        <mxCell id="7mBmOgxy3KULkcCHV_U--38" style="edgeStyle=orthogonalEdgeStyle;rounded=0;orthogonalLoop=1;jettySize=auto;html=1;exitX=1;exitY=0.25;exitDx=0;exitDy=0;dashed=1;strokeWidth=2;entryX=0.006;entryY=0.109;entryDx=0;entryDy=0;entryPerimeter=0;" edge="1" parent="y3E0y7-ujIsQNwnxvG9X-1" target="7mBmOgxy3KULkcCHV_U--34">
          <mxGeometry relative="1" as="geometry">
            <mxPoint x="-228" y="1160" as="targetPoint" />
            <mxPoint x="-355" y="1161" as="sourcePoint" />
          </mxGeometry>
        </mxCell>
        <mxCell id="7mBmOgxy3KULkcCHV_U--39" style="edgeStyle=orthogonalEdgeStyle;rounded=0;orthogonalLoop=1;jettySize=auto;html=1;exitX=1;exitY=0.25;exitDx=0;exitDy=0;dashed=1;strokeWidth=2;" edge="1" parent="y3E0y7-ujIsQNwnxvG9X-1">
          <mxGeometry relative="1" as="geometry">
            <mxPoint x="80" y="1160" as="targetPoint" />
            <mxPoint x="-55" y="1161" as="sourcePoint" />
            <Array as="points">
              <mxPoint x="13" y="1161" />
              <mxPoint x="13" y="1160" />
            </Array>
          </mxGeometry>
        </mxCell>
        <mxCell id="7mBmOgxy3KULkcCHV_U--40" style="edgeStyle=orthogonalEdgeStyle;rounded=0;orthogonalLoop=1;jettySize=auto;html=1;entryX=1;entryY=0.25;entryDx=0;entryDy=0;dashed=1;strokeWidth=2;" edge="1" parent="y3E0y7-ujIsQNwnxvG9X-1">
          <mxGeometry relative="1" as="geometry">
            <mxPoint x="80" y="1190" as="sourcePoint" />
            <mxPoint x="-57" y="1190" as="targetPoint" />
          </mxGeometry>
        </mxCell>
        <mxCell id="7mBmOgxy3KULkcCHV_U--41" style="edgeStyle=orthogonalEdgeStyle;rounded=0;orthogonalLoop=1;jettySize=auto;html=1;entryX=1;entryY=0.25;entryDx=0;entryDy=0;dashed=1;strokeWidth=2;" edge="1" parent="y3E0y7-ujIsQNwnxvG9X-1">
          <mxGeometry relative="1" as="geometry">
            <mxPoint x="-218" y="1190" as="sourcePoint" />
            <mxPoint x="-355" y="1190" as="targetPoint" />
          </mxGeometry>
        </mxCell>
        <mxCell id="7mBmOgxy3KULkcCHV_U--42" style="edgeStyle=orthogonalEdgeStyle;rounded=0;orthogonalLoop=1;jettySize=auto;html=1;dashed=1;strokeWidth=2;" edge="1" parent="y3E0y7-ujIsQNwnxvG9X-1">
          <mxGeometry relative="1" as="geometry">
            <mxPoint x="-520" y="1190" as="sourcePoint" />
            <mxPoint x="-650" y="1190" as="targetPoint" />
          </mxGeometry>
        </mxCell>
        <mxCell id="7mBmOgxy3KULkcCHV_U--43" value="response diagnostic job" style="text;html=1;strokeColor=none;fillColor=none;align=center;verticalAlign=middle;whiteSpace=wrap;rounded=0;" vertex="1" parent="y3E0y7-ujIsQNwnxvG9X-1">
          <mxGeometry x="-637" y="1200" width="120" height="20" as="geometry" />
        </mxCell>
        <mxCell id="7mBmOgxy3KULkcCHV_U--44" value="response diagnostic job" style="text;html=1;strokeColor=none;fillColor=none;align=center;verticalAlign=middle;whiteSpace=wrap;rounded=0;" vertex="1" parent="y3E0y7-ujIsQNwnxvG9X-1">
          <mxGeometry x="-340" y="1200" width="120" height="20" as="geometry" />
        </mxCell>
        <mxCell id="7mBmOgxy3KULkcCHV_U--45" value="response diagnostic job" style="text;html=1;strokeColor=none;fillColor=none;align=center;verticalAlign=middle;whiteSpace=wrap;rounded=0;" vertex="1" parent="y3E0y7-ujIsQNwnxvG9X-1">
          <mxGeometry x="-40" y="1200" width="120" height="20" as="geometry" />
        </mxCell>
        <mxCell id="7mBmOgxy3KULkcCHV_U--46" value="request diagnostic job" style="text;html=1;strokeColor=none;fillColor=none;align=center;verticalAlign=middle;whiteSpace=wrap;rounded=0;" vertex="1" parent="y3E0y7-ujIsQNwnxvG9X-1">
          <mxGeometry x="-50" y="1140" width="120" height="20" as="geometry" />
        </mxCell>
        <mxCell id="7mBmOgxy3KULkcCHV_U--47" value="request diagnostic job" style="text;html=1;strokeColor=none;fillColor=none;align=center;verticalAlign=middle;whiteSpace=wrap;rounded=0;" vertex="1" parent="y3E0y7-ujIsQNwnxvG9X-1">
          <mxGeometry x="-350" y="1140" width="120" height="20" as="geometry" />
        </mxCell>
        <mxCell id="7mBmOgxy3KULkcCHV_U--48" value="request diagnostic job" style="text;html=1;strokeColor=none;fillColor=none;align=center;verticalAlign=middle;whiteSpace=wrap;rounded=0;" vertex="1" parent="y3E0y7-ujIsQNwnxvG9X-1">
          <mxGeometry x="-640" y="1140" width="120" height="20" as="geometry" />
        </mxCell>
        <mxCell id="7mBmOgxy3KULkcCHV_U--52" value="send provisioning data" style="text;html=1;strokeColor=none;fillColor=none;align=center;verticalAlign=middle;whiteSpace=wrap;rounded=0;" vertex="1" parent="y3E0y7-ujIsQNwnxvG9X-1">
          <mxGeometry x="-647" y="1267.5" width="133" height="20" as="geometry" />
        </mxCell>
        <mxCell id="7mBmOgxy3KULkcCHV_U--55" value="send provisioning data" style="text;html=1;strokeColor=none;fillColor=none;align=center;verticalAlign=middle;whiteSpace=wrap;rounded=0;" vertex="1" parent="y3E0y7-ujIsQNwnxvG9X-1">
          <mxGeometry x="-350" y="1260" width="133" height="20" as="geometry" />
        </mxCell>
        <mxCell id="7mBmOgxy3KULkcCHV_U--56" value="send provisioning data" style="text;html=1;strokeColor=none;fillColor=none;align=center;verticalAlign=middle;whiteSpace=wrap;rounded=0;" vertex="1" parent="y3E0y7-ujIsQNwnxvG9X-1">
          <mxGeometry x="-56.5" y="1260" width="133" height="20" as="geometry" />
        </mxCell>
        <mxCell id="7mBmOgxy3KULkcCHV_U--57" value="" style="rounded=0;whiteSpace=wrap;html=1;strokeColor=#2D7600;fillColor=#60a917;fontColor=#ffffff;" vertex="1" parent="y3E0y7-ujIsQNwnxvG9X-1">
          <mxGeometry x="250" y="1272.5" width="90" height="85" as="geometry" />
        </mxCell>
        <mxCell id="7mBmOgxy3KULkcCHV_U--58" value="other services" style="rounded=0;whiteSpace=wrap;html=1;strokeColor=#2D7600;fillColor=#60a917;fontColor=#ffffff;" vertex="1" parent="y3E0y7-ujIsQNwnxvG9X-1">
          <mxGeometry x="270" y="1287.5" width="90" height="85" as="geometry" />
        </mxCell>
        <mxCell id="7mBmOgxy3KULkcCHV_U--60" value="" style="rounded=0;whiteSpace=wrap;html=1;strokeColor=#2D7600;fillColor=#60a917;fontColor=#ffffff;" vertex="1" parent="y3E0y7-ujIsQNwnxvG9X-1">
          <mxGeometry x="260" y="1100" width="90" height="85" as="geometry" />
        </mxCell>
        <mxCell id="7mBmOgxy3KULkcCHV_U--61" value="other services" style="rounded=0;whiteSpace=wrap;html=1;strokeColor=#2D7600;fillColor=#60a917;fontColor=#ffffff;" vertex="1" parent="y3E0y7-ujIsQNwnxvG9X-1">
          <mxGeometry x="270" y="1115" width="90" height="85" as="geometry" />
        </mxCell>
        <mxCell id="7mBmOgxy3KULkcCHV_U--64" style="edgeStyle=orthogonalEdgeStyle;rounded=0;orthogonalLoop=1;jettySize=auto;html=1;exitX=1;exitY=0.5;exitDx=0;exitDy=0;dashed=1;strokeWidth=2;" edge="1" parent="y3E0y7-ujIsQNwnxvG9X-1" source="7mBmOgxy3KULkcCHV_U--63">
          <mxGeometry relative="1" as="geometry">
            <mxPoint x="-522" y="1372" as="targetPoint" />
            <Array as="points">
              <mxPoint x="-650" y="1372" />
            </Array>
          </mxGeometry>
        </mxCell>
        <mxCell id="7mBmOgxy3KULkcCHV_U--63" value="libcod&lt;br&gt;(coding library)" style="rounded=0;whiteSpace=wrap;html=1;strokeColor=#2D7600;fillColor=#60a917;fontColor=#ffffff;" vertex="1" parent="y3E0y7-ujIsQNwnxvG9X-1">
          <mxGeometry x="-770" y="1337.5" width="120" height="60" as="geometry" />
        </mxCell>
        <mxCell id="7mBmOgxy3KULkcCHV_U--65" value="get coding data" style="text;html=1;strokeColor=none;fillColor=none;align=center;verticalAlign=middle;whiteSpace=wrap;rounded=0;" vertex="1" parent="y3E0y7-ujIsQNwnxvG9X-1">
          <mxGeometry x="-650" y="1350" width="133" height="20" as="geometry" />
        </mxCell>
        <mxCell id="7mBmOgxy3KULkcCHV_U--70" value="send coding data" style="text;html=1;strokeColor=none;fillColor=none;align=center;verticalAlign=middle;whiteSpace=wrap;rounded=0;" vertex="1" parent="y3E0y7-ujIsQNwnxvG9X-1">
          <mxGeometry x="-363" y="1337.5" width="133" height="20" as="geometry" />
        </mxCell>
        <mxCell id="7mBmOgxy3KULkcCHV_U--71" value="send coding data" style="text;html=1;strokeColor=none;fillColor=none;align=center;verticalAlign=middle;whiteSpace=wrap;rounded=0;" vertex="1" parent="y3E0y7-ujIsQNwnxvG9X-1">
          <mxGeometry x="-50" y="1337.5" width="133" height="20" as="geometry" />
        </mxCell>
        <mxCell id="7mBmOgxy3KULkcCHV_U--73" value="trigger SIM event discovery" style="text;html=1;strokeColor=none;fillColor=none;align=center;verticalAlign=middle;whiteSpace=wrap;rounded=0;" vertex="1" parent="y3E0y7-ujIsQNwnxvG9X-1">
          <mxGeometry x="-653" y="1450" width="133" height="20" as="geometry" />
        </mxCell>
        <mxCell id="7mBmOgxy3KULkcCHV_U--75" value="send SIM event discovery" style="text;html=1;strokeColor=none;fillColor=none;align=center;verticalAlign=middle;whiteSpace=wrap;rounded=0;" vertex="1" parent="y3E0y7-ujIsQNwnxvG9X-1">
          <mxGeometry x="-356.5" y="1450" width="133" height="20" as="geometry" />
        </mxCell>
        <mxCell id="7mBmOgxy3KULkcCHV_U--77" value="send SIM event discovery" style="text;html=1;strokeColor=none;fillColor=none;align=center;verticalAlign=middle;whiteSpace=wrap;rounded=0;" vertex="1" parent="y3E0y7-ujIsQNwnxvG9X-1">
          <mxGeometry x="-53" y="1440" width="133" height="20" as="geometry" />
        </mxCell>
        <mxCell id="7mBmOgxy3KULkcCHV_U--79" value="trigger SIM event discovery" style="text;html=1;strokeColor=none;fillColor=none;align=center;verticalAlign=middle;whiteSpace=wrap;rounded=0;" vertex="1" parent="y3E0y7-ujIsQNwnxvG9X-1">
          <mxGeometry x="-896.5" y="1450" width="133" height="20" as="geometry" />
        </mxCell>
        <mxCell id="7mBmOgxy3KULkcCHV_U--81" style="edgeStyle=orthogonalEdgeStyle;rounded=0;orthogonalLoop=1;jettySize=auto;html=1;exitX=0;exitY=0.25;exitDx=0;exitDy=0;entryX=1;entryY=0.839;entryDx=0;entryDy=0;entryPerimeter=0;dashed=1;strokeWidth=2;" edge="1" parent="y3E0y7-ujIsQNwnxvG9X-1">
          <mxGeometry relative="1" as="geometry">
            <mxPoint x="-220" y="1570.16" as="sourcePoint" />
            <mxPoint x="-358" y="1570.0000000000002" as="targetPoint" />
            <Array as="points">
              <mxPoint x="-310" y="1570" />
              <mxPoint x="-310" y="1570" />
            </Array>
          </mxGeometry>
        </mxCell>
        <mxCell id="7mBmOgxy3KULkcCHV_U--86" style="edgeStyle=orthogonalEdgeStyle;rounded=0;orthogonalLoop=1;jettySize=auto;html=1;exitX=1;exitY=0.75;exitDx=0;exitDy=0;entryX=0;entryY=0.75;entryDx=0;entryDy=0;dashed=1;strokeWidth=2;" edge="1" parent="y3E0y7-ujIsQNwnxvG9X-1">
          <mxGeometry relative="1" as="geometry">
            <mxPoint x="-355" y="1610" as="sourcePoint" />
            <mxPoint x="-220" y="1610" as="targetPoint" />
          </mxGeometry>
        </mxCell>
        <mxCell id="7mBmOgxy3KULkcCHV_U--89" value="start eCall service" style="text;html=1;strokeColor=none;fillColor=none;align=center;verticalAlign=middle;whiteSpace=wrap;rounded=0;" vertex="1" parent="y3E0y7-ujIsQNwnxvG9X-1">
          <mxGeometry x="-53" y="1550" width="133" height="20" as="geometry" />
        </mxCell>
        <mxCell id="7mBmOgxy3KULkcCHV_U--92" value="start eCall service" style="text;html=1;strokeColor=none;fillColor=none;align=center;verticalAlign=middle;whiteSpace=wrap;rounded=0;" vertex="1" parent="y3E0y7-ujIsQNwnxvG9X-1">
          <mxGeometry x="-896.5" y="1540" width="133" height="20" as="geometry" />
        </mxCell>
        <mxCell id="7mBmOgxy3KULkcCHV_U--93" value="start eCall service" style="text;html=1;strokeColor=none;fillColor=none;align=center;verticalAlign=middle;whiteSpace=wrap;rounded=0;" vertex="1" parent="y3E0y7-ujIsQNwnxvG9X-1">
          <mxGeometry x="-350" y="1550" width="133" height="20" as="geometry" />
        </mxCell>
        <mxCell id="7mBmOgxy3KULkcCHV_U--94" value="start eCall service" style="text;html=1;strokeColor=none;fillColor=none;align=center;verticalAlign=middle;whiteSpace=wrap;rounded=0;" vertex="1" parent="y3E0y7-ujIsQNwnxvG9X-1">
          <mxGeometry x="-648.5" y="1540" width="133" height="20" as="geometry" />
        </mxCell>
        <mxCell id="7mBmOgxy3KULkcCHV_U--95" value="update ecall Status" style="text;html=1;strokeColor=none;fillColor=none;align=center;verticalAlign=middle;whiteSpace=wrap;rounded=0;" vertex="1" parent="y3E0y7-ujIsQNwnxvG9X-1">
          <mxGeometry x="-890" y="1610" width="133" height="20" as="geometry" />
        </mxCell>
        <mxCell id="7mBmOgxy3KULkcCHV_U--96" value="update ecall Status" style="text;html=1;strokeColor=none;fillColor=none;align=center;verticalAlign=middle;whiteSpace=wrap;rounded=0;" vertex="1" parent="y3E0y7-ujIsQNwnxvG9X-1">
          <mxGeometry x="-657" y="1610" width="133" height="20" as="geometry" />
        </mxCell>
        <mxCell id="7mBmOgxy3KULkcCHV_U--97" value="update ecall Status" style="text;html=1;strokeColor=none;fillColor=none;align=center;verticalAlign=middle;whiteSpace=wrap;rounded=0;" vertex="1" parent="y3E0y7-ujIsQNwnxvG9X-1">
          <mxGeometry x="-356.5" y="1610" width="133" height="20" as="geometry" />
        </mxCell>
        <mxCell id="7mBmOgxy3KULkcCHV_U--98" value="update ecall Status" style="text;html=1;strokeColor=none;fillColor=none;align=center;verticalAlign=middle;whiteSpace=wrap;rounded=0;" vertex="1" parent="y3E0y7-ujIsQNwnxvG9X-1">
          <mxGeometry x="-46.5" y="1610" width="133" height="20" as="geometry" />
        </mxCell>
        <mxCell id="7mBmOgxy3KULkcCHV_U--99" value="" style="rounded=0;whiteSpace=wrap;html=1;fillColor=#ffe6cc;strokeColor=#d79b00;" vertex="1" parent="y3E0y7-ujIsQNwnxvG9X-1">
          <mxGeometry x="150" y="1950" width="70" height="30" as="geometry" />
        </mxCell>
        <mxCell id="7mBmOgxy3KULkcCHV_U--100" value="Backend" style="text;html=1;strokeColor=none;fillColor=none;align=center;verticalAlign=middle;whiteSpace=wrap;rounded=0;" vertex="1" parent="y3E0y7-ujIsQNwnxvG9X-1">
          <mxGeometry x="185" y="1955" width="160" height="20" as="geometry" />
        </mxCell>
        <mxCell id="7mBmOgxy3KULkcCHV_U--101" value="" style="rounded=0;whiteSpace=wrap;html=1;fillColor=none;strokeColor=#FF0000;strokeWidth=2;dashed=1;" vertex="1" parent="y3E0y7-ujIsQNwnxvG9X-1">
          <mxGeometry x="-540" y="1090" width="500" height="580" as="geometry" />
        </mxCell>
      </root>
    </mxGraphModel>
  </diagram>
</mxfile>
